<?xml version="1.0" encoding="utf-8"?>
<svg
  xmlns="http://www.w3.org/2000/svg"
  width="50"
  height="50"
  viewBox="0 0 37.5 50"
>
  <path
    d="M21.875 13.281V0H2.344A2.338 2.338 0 0 0 0 2.344v45.312A2.338 2.338 0 0 0 2.344 50h32.812a2.338 2.338 0 0 0 2.344-2.344V15.625H24.219a2.351 2.351 0 0 1-2.344-2.344zM6.25 7.031a.781.781 0 0 1 .781-.781h7.813a.781.781 0 0 1 .781.781v1.563a.781.781 0 0 1-.781.781H7.031a.781.781 0 0 1-.781-.781zm0 6.25a.781.781 0 0 1 .781-.781h7.813a.781.781 0 0 1 .781.781v1.563a.781.781 0 0 1-.781.781H7.031a.781.781 0 0 1-.781-.781zM25.079 37.5h4.608a1.563 1.563 0 0 1 0 3.125h-4.608a4.2 4.2 0 0 1-3.773-2.33 1.082 1.082 0 0 0-.993-.637 1.065 1.065 0 0 0-.979.6l-.749 1.5a1.561 1.561 0 0 1-1.4.863h-.111a1.557 1.557 0 0 1-1.37-1.063L14.06 34.63l-1.036 3.113a4.216 4.216 0 0 1-4 2.884H7.813a1.563 1.563 0 0 1 0-3.125h1.21a1.1 1.1 0 0 0 1.039-.748l1.776-5.336a2.345 2.345 0 0 1 4.448 0l1.355 4.066a4.382 4.382 0 0 1 6.445 1.383 1.114 1.114 0 0 0 .992.635zm11.737-27.246l-9.56-9.57A2.342 2.342 0 0 0 25.6 0H25v12.5h12.5v-.6a2.336 2.336 0 0 0-.684-1.646z"
  />
</svg>
