<?xml version="1.0" encoding="UTF-8"?>
<!-- Created with EazyDraw for Mac ( http://www.eazydraw.com/ ) -->

<svg
    version="1.1"
    xmlns:dc="http://purl.org/dc/elements/1.1/"
    xmlns:cc="http://creativecommons.org/ns#"
    xmlns:rdf="http://www.w3.org/1999/02/22-rdf-syntax-ns#"
    xmlns:svg="http://www.w3.org/2000/svg"
    xmlns:xlink="http://www.w3.org/1999/xlink"
    xmlns="http://www.w3.org/2000/svg"
    width="157.4"
    height="17.7"
    viewBox="0, 0, 157.4, 17.7"
    preserveAspectRatio="none"
    id="svg2">
   <defs
       id="defs_E469B81E"/>
   <metadata
       id="metadata7">
      <rdf:RDF>
         <cc:Work
             rdf:about="">
            <dc:format>image/svg+xml</dc:format>
            <dc:type rdf:resource="http://purl.org/dc/dcmitype/StillImage"/>
            <dc:title></dc:title>
         </cc:Work>
      </rdf:RDF>
   </metadata>
   <g
       id="layer_Paper"
       style="fill:#000000;fill-opacity:1;stroke:#000000;stroke-opacity:1;fill-rule:nonzero;stroke-linecap:square;stroke-linejoin:miter;stroke-width:1;stroke-miterlimit:10">
      <g
          id="11E5071E">
         <path
             style="stroke:none"
             id="B3E5071E"
             d="M5.6,1 C7.6,1 8.6,1.3 9.6,2.2 C10.4,3 10.8,3.9 10.8,5.1 C10.8,6.2 10.4,7.1 9.7,7.8 C9.2,8.2 9,8.4 8.2,8.6 C10.2,9.2 11.4,10.6 11.4,12.7 C11.4,14.9 10,17 7.2,17.2 C6.7,17.2 6,17.2 5.1,17.2 L0,17.2 L0,1 L5.6,1
z M3.3,7.5 L5.2,7.5 C6,7.5 6.3,7.4 6.6,7.3 C7,7.1 7.4,6.3 7.4,5.6 C7.4,4.9 7.1,4.2 6.5,4 C6.2,3.9 5.9,3.8 5.2,3.8 L3.3,3.8 L3.3,7.5 z M3.3,14.5 L5.4,14.5 C6.1,14.5 6.6,14.4 6.9,14.1 C7.4,13.7 7.7,13 7.7,12.2
C7.7,11.3 7.2,10.4 6.5,10.2 C6.1,10.1 5.8,10.1 5.2,10.1 L3.2,10.1 L3.2,14.5 z"/>
         <path
             style="stroke:none"
             id="B5E5071E"
             d="M23.3,17.2 L13.6,17.2 L13.6,14.4 C14.4,14 14.6,14 16,13.2 C19.2,11.4 20,10.3 20,9.3 C20,8.3 19.2,7.7 18.1,7.7 C17.1,7.7 16.2,8.1 14.9,9.2 L13,7.3 C14.7,5.8 16.5,5 18.9,5 C21.7,5 23.4,6.5 23.4,8.8 C23.4,10.5 22.5,11.6 21.2,12.6
C20.4,13.2 18.9,13.9 18,14.5 C17.9,14.6 17.6,14.7 17.4,14.8 C17.9,14.7 18.9,14.7 19.7,14.7 L23.9,14.7 L23.3,17.2 z"/>
         <path
             style="stroke:none"
             id="97E5071E"
             d="M32.3,1 C34.3,1 35.3,1.3 36.3,2.2 C37.2,3 37.6,3.9 37.6,5.1 C37.6,6.2 37.2,7.1 36.5,7.8 C36,8.2 35.8,8.4 35,8.6 C37,9.2 38.2,10.6 38.2,12.7 C38.2,14.9 36.8,17 34,17.2 C33.5,17.2 32.8,17.2 31.9,17.2 L26.8,17.2
L26.8,1 L32.3,1 z M30.1,7.5 L32,7.5 C32.8,7.5 33.1,7.4 33.4,7.3 C33.8,7.1 34.2,6.3 34.2,5.6 C34.2,4.9 33.9,4.2 33.3,4 C33,3.9 32.7,3.8 32,3.8 L30.1,3.8 L30.1,7.5 z M30.1,14.5 L32.2,14.5 C32.9,14.5 33.4,14.4 33.7,14.1
C34.2,13.7 34.5,13 34.5,12.2 C34.5,11.3 34,10.4 33.3,10.2 C32.9,10.1 32.6,10.1 32,10.1 L30,10.1 L30,14.5 z"/>
         <path
             style="stroke:none"
             id="89E5071E"
             d="M52.9,1 L58,17.2 L54.5,17.2 L53.4,13.4 L48.7,13.4 L47.6,17.2 L44.2,17.2 L49.5,1 L52.9,1 z M52.6,10.6 C52.6,10.6 52.1,8.9 51.7,7.3 C51.5,6.6 51,4.4 51,4.4 C51,4.4 50.5,6.3 50.2,7.5 C49.9,8.7 49.7,9.4 49.3,10.5
L52.6,10.5 z"/>
         <path
             style="stroke:none"
             id="6BE5071E"
             d="M66,8.3 C65.4,7.7 64.7,7.4 64.1,7.4 C62.7,7.4 62.1,8.6 62.1,11.4 C62.1,13 62.3,13.9 62.7,14.4 C63,14.8 63.6,15.1 64.1,15.1 C64.8,15.1 65.5,14.8 66.2,14.1 L66.4,13.9 L67.8,15.8 C67.3,16.3 67.1,16.4 66.7,16.7
C65.9,17.2 64.9,17.4 63.8,17.4 C60.5,17.4 58.6,15.1 58.6,11.3 C58.6,8.6 59.6,6.7 61,5.8 C61.8,5.3 63,4.9 64,4.9 C64.8,4.9 65.7,5.1 66.3,5.4 C66.7,5.6 67,5.8 67.5,6.2 L66,8.3 z"/>
         <path
             style="stroke:none"
             id="3DE5071E"
             d="M76.2,8.3 C75.6,7.7 74.9,7.4 74.3,7.4 C72.9,7.4 72.3,8.6 72.3,11.4 C72.3,13 72.5,13.9 72.9,14.4 C73.2,14.8 73.8,15.1 74.3,15.1 C75,15.1 75.7,14.8 76.4,14.1 L76.6,13.9 L78,15.8 C77.5,16.3 77.3,16.4 76.9,16.7
C76.1,17.2 75.1,17.4 74,17.4 C70.7,17.4 68.8,15.1 68.8,11.3 C68.8,8.6 69.8,6.7 71.2,5.8 C72,5.3 73.2,4.9 74.2,4.9 C75,4.9 75.9,5.1 76.5,5.4 C76.9,5.6 77.2,5.8 77.7,6.2 L76.2,8.3 z"/>
         <path
             style="stroke:none"
             id="1FE5071E"
             d="M89.2,15.9 C87.8,17 86.4,17.5 84.7,17.5 C81.3,17.5 79.1,15.1 79.1,11.3 C79.1,9.2 79.5,7.7 80.6,6.6 C81.6,5.5 82.8,5 84.3,5 C85.7,5 87,5.5 87.7,6.3 C88.8,7.4 89.3,9 89.3,11.5 C89.3,11.8 89.3,12 89.3,12.2
L82.4,12.2 L82.4,12.3 C82.4,14.1 83.3,15.2 84.9,15.2 C86,15.2 87,14.8 87.9,14 L89.2,15.9 z M86.1,9.9 L86.1,9.8 C86.1,8.9 86,8.5 85.7,8 C85.4,7.5 85,7.3 84.3,7.3 C83.1,7.3 82.4,8.2 82.4,9.9 L82.4,9.9 L86.1,9.9
z"/>
         <path
             style="stroke:none"
             id="E0F5071E"
             d="M94.7,3.1 L94.7,12.4 C94.7,14.4 94.7,14.7 94.9,15 C95,15.2 95.3,15.3 95.5,15.3 C95.6,15.3 95.7,15.3 95.8,15.3 L96.3,17.2 C95.8,17.4 95.1,17.5 94.4,17.5 C93.1,17.5 92,16.9 91.6,15.9 C91.4,15.3 91.3,14.9 91.3,13.2
L91.3,4.3 C91.3,2.7 91.3,1.8 91.1,0.7 L94.3,0 C94.7,0.6 94.7,1.4 94.7,3.1 z"/>
         <path
             style="stroke:none"
             id="C2F5071E"
             d="M108.1,15.9 C106.7,17 105.3,17.5 103.6,17.5 C100.2,17.5 98,15.1 98,11.3 C98,9.2 98.4,7.7 99.5,6.6 C100.5,5.5 101.7,5 103.2,5 C104.6,5 105.9,5.5 106.6,6.3 C107.7,7.4 108.2,9 108.2,11.5 C108.2,11.8 108.2,12 108.2,12.2
L101.3,12.2 L101.3,12.3 C101.3,14.1 102.2,15.2 103.8,15.2 C104.9,15.2 105.9,14.8 106.8,14 L108.1,15.9 z M105,9.9 L105,9.8 C105,8.9 104.9,8.5 104.6,8 C104.3,7.5 103.9,7.3 103.2,7.3 C102,7.3 101.3,8.2 101.3,9.9
L101.3,9.9 L105,9.9 z"/>
         <path
             style="stroke:none"
             id="94F5071E"
             d="M113,5 C113.3,5.5 113.4,6 113.5,6.7 C113.9,6.1 114.7,5.4 115.3,5.2 C115.6,5.1 116,5 116.3,5 C116.8,5 117,5 117.5,5.3 L116.6,8 C116.3,7.8 116,7.8 115.7,7.8 C115,7.8 114.4,8.1 113.8,8.8 L113.8,17.2 L110.7,17.2
L110.7,9.3 C110.7,7.7 110.5,6.5 110.3,5.8 L113,5 z"/>
         <path
             style="stroke:none"
             id="76F5071E"
             d="M120,5.7 C121.2,5.2 122.2,5 123.3,5 C125.3,5 126.7,5.7 127.1,7.1 C127.3,7.6 127.3,8 127.3,9.2 L127.2,13.2 C127.2,13.3 127.2,13.3 127.2,13.4 C127.2,14.7 127.4,15.2 128.3,15.8 L126.6,17.7 C125.9,17.4 125.2,16.9 124.9,16.3
C124.7,16.5 124.4,16.8 124.2,16.9 C123.6,17.3 122.8,17.6 121.8,17.6 C119.2,17.6 117.7,16.3 117.7,13.9 C117.7,11.1 119.6,9.8 123.4,9.8 C123.6,9.8 123.8,9.8 124.1,9.8 L124.1,9.3 C124.1,8 123.8,7.5 122.7,7.5
C121.7,7.5 120.5,8 119.3,8.8 L118,6.6 C118.7,6.3 119.2,6.1 120,5.7 z M124,12 C121.8,12 121.1,12.4 121.1,13.8 C121.1,14.7 121.7,15.4 122.5,15.4 C123.1,15.4 123.7,15.1 124.1,14.6 L124.1,12 L124,12 z"/>
         <path
             style="stroke:none"
             id="48F5071E"
             d="M135.5,7.4 L133.5,7.4 L133.5,13.4 C133.5,14.9 133.8,15.3 134.8,15.3 C135.1,15.3 135.4,15.2 135.9,15.1 L136.3,17 C135.4,17.4 134.6,17.5 133.8,17.5 C132.2,17.5 131,16.8 130.6,15.8 C130.4,15.3 130.4,15.1 130.4,14
L130.4,7.4 L129.2,7.4 L129.2,5.3 L130.4,5.3 C130.4,4.1 130.4,3.4 130.5,2.5 L133.7,1.7 C133.6,2.8 133.5,4.1 133.5,5.3 L136.3,5.3 L135.5,7.4 z"/>
         <path
             style="stroke:none"
             id="3AF5071E"
             d="M146.8,6.8 C147.8,7.9 148.2,9.2 148.2,11.1 C148.2,13.1 147.7,14.5 146.7,15.7 C145.8,16.7 144.6,17.3 142.8,17.3 C139.6,17.3 137.5,14.9 137.5,11.1 C137.5,7.4 139.6,4.9 142.8,4.9 C144.5,5 145.8,5.6 146.8,6.8
z M141.2,8.6 C141,9.2 140.9,10.1 140.9,11.3 C140.9,12.7 141,13.7 141.3,14.3 C141.6,15 142.3,15.3 142.9,15.3 C144.2,15.3 144.8,14.1 144.8,11.3 C144.8,9.7 144.6,8.7 144.2,8.1 C143.9,7.7 143.4,7.5 142.9,7.5
C142.1,7.3 141.5,7.8 141.2,8.6 z"/>
         <path
             style="stroke:none"
             id="3CF5071E"
             d="M152.9,5 C153.2,5.5 153.3,6 153.4,6.7 C153.8,6.1 154.6,5.4 155.2,5.2 C155.5,5.1 155.9,5 156.2,5 C156.7,5 156.9,5 157.4,5.3 L156.5,8 C156.2,7.8 155.9,7.8 155.6,7.8 C154.9,7.8 154.3,8.1 153.7,8.8 L153.7,17.2
L150.6,17.2 L150.6,9.3 C150.6,7.7 150.4,6.5 150.2,5.8 L152.9,5 z"/>
      </g>
   </g>
</svg>
