<?xml version="1.0" encoding="utf-8"?>
<svg
  xmlns="http://www.w3.org/2000/svg"
  width="50"
  height="50"
  viewBox="0 0 50 35"
>
  <path
    d="M48.527 33.755A23.135 23.135 0 0 0 39.433 32c-9.623 0-19.244 4.87-28.867 4.87a23.7 23.7 0 0 1-7.238-1.07 2.671 2.671 0 0 0-.809-.127A2.486 2.486 0 0 0 0 38.157v24.785a2.484 2.484 0 0 0 1.472 2.3A23.122 23.122 0 0 0 10.566 67c9.623 0 19.245-4.871 28.868-4.871a23.7 23.7 0 0 1 7.238 1.071 2.671 2.671 0 0 0 .809.127A2.486 2.486 0 0 0 50 60.842V36.057a2.488 2.488 0 0 0-1.473-2.3zM3.75 39.83a27.187 27.187 0 0 0 4.9.7 5.006 5.006 0 0 1-4.9 4.027zm0 22.265v-3.733a5 5 0 0 1 4.977 4.8 18.873 18.873 0 0 1-4.977-1.067zM25 57c-3.452 0-6.25-3.359-6.25-7.5S21.548 42 25 42s6.25 3.358 6.25 7.5S28.45 57 25 57zm21.25 2.17a26.861 26.861 0 0 0-4.244-.659 4.989 4.989 0 0 1 4.244-3.85zm0-18.446a4.99 4.99 0 0 1-4.36-4.809 18.78 18.78 0 0 1 4.36.989z"
    transform="translate(0 -32)"
  />
</svg>
