<?xml version="1.0" encoding="utf-8"?>
<svg
  xmlns="http://www.w3.org/2000/svg"
  width="50"
  height="50"
  viewBox="0 0 50 35"
>
  <path
    d="M7.5 47a5 5 0 1 0-5-5 5 5 0 0 0 5 5zm35 0a5 5 0 1 0-5-5 5 5 0 0 0 5 5zm2.5 2.5h-5a4.985 4.985 0 0 0-3.523 1.453 11.428 11.428 0 0 1 5.867 8.547H47.5A2.5 2.5 0 0 0 50 57v-2.5a5 5 0 0 0-5-5zm-20 0a8.75 8.75 0 1 0-8.75-8.75A8.746 8.746 0 0 0 25 49.5zm6 2.5h-.648a12.081 12.081 0 0 1-10.7 0H19a9 9 0 0 0-9 9v2.25A3.751 3.751 0 0 0 13.75 67h22.5A3.751 3.751 0 0 0 40 63.25V61a9 9 0 0 0-9-9zm-17.477-1.047A4.985 4.985 0 0 0 10 49.5H5a5 5 0 0 0-5 5V57a2.5 2.5 0 0 0 2.5 2.5h5.148a11.456 11.456 0 0 1 5.875-8.547z"
    transform="translate(0 -32)"
  />
</svg>
