<?xml version="1.0" encoding="utf-8"?>
<!-- Generator: Adobe Illustrator 22.1.0, SVG Export Plug-In . SVG Version: 6.00 Build 0)  -->
<svg version="1.1" id="Layer_1" xmlns="http://www.w3.org/2000/svg" xmlns:xlink="http://www.w3.org/1999/xlink" x="0px" y="0px"
	 viewBox="0 0 270 254" style="enable-background:new 0 0 270 254;" xml:space="preserve">
<style type="text/css">
	.st0{fill:#FEFEFE;}
	.st1{fill:#D2D5DA;}
</style>
<g>
	<path class="st0" d="M0,0c90,0,180,0,270,0c0,84.7,0,169.3,0,254c-90,0-180,0-270,0C0,169.3,0,84.7,0,0z M24.9,117.2
		c-0.4,17.9,7.2,34.7,19.3,49.3c13.7,16.5,31.3,27.6,51.8,34.1c23.1,7.3,46.3,8.8,69.9,2.2c2.8-0.8,6.4-1.2,8.9-0.1
		c17.9,8.1,35.5,16.7,53.4,24.8c2,0.9,5.4,1.1,7.2,0c3-1.8,1.5-4.9,0.2-7.5c-6.4-12.7-12.7-25.5-19.2-38.3c-1.4-2.7-1-4.3,1.2-6.4
		c3.8-3.4,7.5-7.1,10.5-11.2c12.3-16.9,18.9-35.5,16.2-56.8c-1.5-11.7-4.8-22.7-11.1-32.6C219,53,199.3,39.2,175,31.4
		c-21.8-7-44-8.4-66.2-4C85.1,32.2,64,42.9,47.4,61.1C33.3,76.5,24.8,94.2,24.9,117.2z"/>
	<path class="st1" d="M24.9,117.2c-0.1-23,8.5-40.7,22.5-56C64,42.9,85.1,32.2,108.8,27.5c22.2-4.4,44.4-3,66.2,4
		c24.3,7.8,44,21.5,57.9,43.1c6.4,9.9,9.7,20.9,11.1,32.6c2.7,21.3-3.9,39.9-16.2,56.8c-3,4.1-6.7,7.8-10.5,11.2
		c-2.3,2.1-2.6,3.7-1.2,6.4c6.5,12.7,12.8,25.5,19.2,38.3c1.3,2.7,2.8,5.7-0.2,7.5c-1.8,1.1-5.1,0.9-7.2,0
		c-17.8-8.2-35.5-16.7-53.4-24.8c-2.5-1.1-6.1-0.7-8.9,0.1c-23.5,6.6-46.8,5.2-69.9-2.2c-20.5-6.5-38.1-17.6-51.8-34.1
		C32.1,151.8,24.5,135,24.9,117.2z M126,126.8C126,126.8,126,126.8,126,126.8c0,2.3-0.1,4.7,0.1,7c0.3,4,4.5,7.9,8.3,8.1
		c4.1,0.2,9.7-3.5,9.4-7.4c-0.4-5.5,3-6.4,6.6-8.2c19.4-9.4,25.2-28.6,18.2-46.9c-8.3-21.5-36.4-29.7-55.6-14.4
		c-9,7.1-13.6,16.6-14.9,27.7c-0.7,5.8,3.6,10.8,8.9,11.2c5.3,0.4,8.2-2.5,9.1-9.2c0.2-1.8,0.6-3.6,1-5.4
		c1.3-5.9,8.1-12.5,14.2-13.3c7.3-0.9,13.9,0.4,18.5,7c4.3,6.3,4.3,12.8,0.9,19.3c-3.1,6-8.4,8.8-14.9,9.4
		c-7.1,0.7-9.8,3.4-9.9,10.3C126,123.8,126,125.3,126,126.8z M148,162.9c0-8.2-5.1-13.9-12.7-13.9c-7.5,0-14.3,6.5-14.3,13.6
		c0.1,6.9,6.8,13.4,14,13.4C142.6,176,148,170.6,148,162.9z"/>
	<path class="st0" d="M126,126.8c0-1.5,0-3,0-4.5c0-6.9,2.8-9.7,9.9-10.3c6.5-0.6,11.8-3.5,14.9-9.4c3.4-6.6,3.4-13.1-0.9-19.3
		c-4.5-6.6-11.2-7.9-18.5-7c-6.1,0.7-12.9,7.4-14.2,13.3c-0.4,1.8-0.8,3.6-1,5.4c-0.9,6.6-3.8,9.6-9.1,9.2
		c-5.3-0.4-9.6-5.4-8.9-11.2c1.3-11.1,5.9-20.6,14.9-27.7c19.2-15.3,47.3-7.1,55.6,14.4c7.1,18.3,1.2,37.5-18.2,46.9
		c-3.6,1.8-7.1,2.7-6.6,8.2c0.3,3.9-5.3,7.6-9.4,7.4c-3.8-0.2-8-4.1-8.3-8.1C125.9,131.5,126,129.1,126,126.8
		C126,126.8,126,126.8,126,126.8z"/>
	<path class="st0" d="M148,162.9c0,7.7-5.4,13.1-13,13.1c-7.2,0-13.9-6.5-14-13.4c-0.1-7.1,6.8-13.7,14.3-13.6
		C142.9,149,148,154.6,148,162.9z"/>
</g>
</svg>
