<?xml version="1.0" encoding="utf-8"?>
<!-- Generator: Adobe Illustrator 16.0.4, SVG Export Plug-In . SVG Version: 6.00 Build 0)  -->
<!DOCTYPE svg PUBLIC "-//W3C//DTD SVG 1.1//EN" "http://www.w3.org/Graphics/SVG/1.1/DTD/svg11.dtd">
<svg version="1.1" id="Layer_1" xmlns="http://www.w3.org/2000/svg" xmlns:xlink="http://www.w3.org/1999/xlink" x="0px" y="0px"
	 width="130.621px" height="23.628px" viewBox="0.094 4.186 130.621 23.628" enable-background="new 0.094 4.186 130.621 23.628"
	 xml:space="preserve">
<title>v2</title>
<desc>Created with Sketch.</desc>
<g id="Page-1">
	<g id="v2">
		<g id="logo-hybris-responsive-copy-3">
			<g id="Group">
				<path id="Shape" d="M2.825,16.047c0-4.09,0.81-7.362,1.315-8.896l3.439-0.205V4.186L2.218,4.493L1.915,5.311
					c-0.101,0.103-1.821,4.5-1.821,10.736c0,6.135,1.72,10.533,1.821,10.736l0.303,0.818l5.361,0.102v-2.76L4.14,24.842
					C3.735,23.408,2.825,20.137,2.825,16.047z"/>
				<path id="Shape_1_" d="M11.929,18.092c0.202-0.408,0.303-0.716,0.505-1.125c1.113-2.555,2.023-5.214,2.125-5.726l-2.934-0.102
					c-0.304,0.818-0.708,2.147-1.314,3.477C9.804,13.389,9.4,12.06,9.096,11.241l-2.832,0.102c0.202,0.614,1.012,3.273,2.022,5.726
					c0.708,1.636,1.619,3.374,2.226,4.499l3.136-0.102C13.648,21.467,12.838,19.932,11.929,18.092z"/>
				<path id="Shape_2_" d="M19.211,5.311l-0.304-0.818l-5.462-0.307v2.761l3.439,0.205c0.505,1.432,1.315,4.704,1.315,8.896
					c0,4.09-0.81,7.361-1.315,8.795l-3.439,0.102v2.76l5.361-0.102l0.304-0.818c0.101-0.203,1.82-4.602,1.82-10.736
					C21.032,9.81,19.313,5.413,19.211,5.311z"/>
			</g>
		</g>
		<path id="Telco-_x26_-Media" d="M27.521,7.419V5.483h8.362L35.5,7.419h-2.771v9.663h-2.37V7.419H27.521z M40.457,15.664
			c0.389,0,0.761-0.072,1.118-0.217c0.355-0.145,0.706-0.356,1.051-0.635l0.868,1.336c-0.49,0.4-0.999,0.695-1.527,0.884
			c-0.528,0.19-1.093,0.284-1.694,0.284c-1.224,0-2.203-0.398-2.938-1.194c-0.734-0.795-1.102-1.866-1.102-3.212
			c0-0.769,0.084-1.422,0.25-1.961c0.167-0.54,0.44-1.015,0.818-1.427c0.356-0.39,0.751-0.679,1.185-0.868
			c0.434-0.189,0.935-0.284,1.502-0.284c0.49,0,0.954,0.078,1.394,0.234c0.44,0.156,0.799,0.378,1.077,0.667
			c0.389,0.4,0.676,0.901,0.859,1.502c0.184,0.601,0.275,1.346,0.275,2.236v0.518h-4.939v0.067c0,0.657,0.156,1.166,0.467,1.527
			C39.432,15.483,39.878,15.664,40.457,15.664z M38.687,11.859v0.033h2.587v-0.101c0-0.322-0.02-0.578-0.059-0.767
			c-0.039-0.189-0.109-0.362-0.208-0.517c-0.112-0.167-0.248-0.292-0.409-0.376c-0.162-0.083-0.354-0.125-0.576-0.125
			c-0.423,0-0.751,0.162-0.985,0.484C38.804,10.813,38.687,11.269,38.687,11.859z M45.013,5.25L47.3,4.732
			c0.043,0.234,0.075,0.512,0.091,0.835c0.017,0.322,0.025,0.784,0.025,1.385v6.66c0,0.712,0.009,1.177,0.025,1.393
			c0.017,0.217,0.053,0.381,0.109,0.493c0.011,0,0.017,0.003,0.017,0.009v0.008c0.044,0.078,0.109,0.136,0.191,0.175
			c0.083,0.039,0.17,0.058,0.259,0.058H48.1c0.023,0,0.048-0.003,0.076-0.008c0.028-0.005,0.059-0.013,0.092-0.025l0.384,1.335
			c-0.189,0.066-0.397,0.119-0.625,0.158c-0.228,0.04-0.464,0.059-0.709,0.059c-0.479,0-0.896-0.103-1.252-0.31
			c-0.356-0.205-0.6-0.486-0.734-0.842c-0.012-0.033-0.022-0.064-0.034-0.092s-0.022-0.059-0.033-0.092
			c-0.056-0.178-0.092-0.38-0.109-0.608c-0.017-0.228-0.025-0.604-0.025-1.127V7.82c0-0.467-0.005-0.874-0.017-1.219
			c-0.01-0.344-0.034-0.672-0.066-0.984c0-0.056-0.003-0.114-0.008-0.175C45.032,5.38,45.023,5.317,45.013,5.25z M54.709,8.671
			c0.034,0.011,0.064,0.024,0.091,0.042c0.028,0.017,0.053,0.036,0.075,0.059c0.034,0.011,0.065,0.027,0.092,0.049
			c0.028,0.022,0.059,0.044,0.092,0.067c0.067,0.045,0.139,0.097,0.218,0.159c0.077,0.061,0.166,0.136,0.266,0.225l-1.084,1.468
			c-0.078-0.067-0.157-0.13-0.234-0.191c-0.077-0.062-0.15-0.114-0.216-0.159c-0.156-0.1-0.309-0.178-0.459-0.233
			c-0.151-0.056-0.297-0.083-0.443-0.083c-0.5,0-0.868,0.228-1.101,0.684c-0.233,0.456-0.351,1.185-0.351,2.186
			c0,0.557,0.037,1.007,0.109,1.353c0.072,0.345,0.18,0.612,0.325,0.801c0.123,0.145,0.273,0.261,0.45,0.351
			c0.179,0.089,0.362,0.133,0.551,0.133c0.101,0,0.198-0.008,0.292-0.025c0.095-0.017,0.187-0.041,0.276-0.075
			c0.156-0.044,0.314-0.117,0.475-0.217c0.162-0.101,0.326-0.228,0.493-0.384l0.134-0.116l1.018,1.352
			c-0.089,0.089-0.169,0.167-0.242,0.234c-0.072,0.066-0.137,0.122-0.192,0.167c-0.034,0.021-0.061,0.042-0.084,0.059
			c-0.022,0.016-0.05,0.035-0.083,0.059c-0.023,0.01-0.05,0.027-0.083,0.05l-0.101,0.067c-0.3,0.178-0.62,0.308-0.959,0.391
			c-0.34,0.084-0.715,0.126-1.126,0.126c-1.18,0-2.095-0.388-2.746-1.16c-0.651-0.773-0.976-1.85-0.976-3.229
			c0-0.991,0.167-1.811,0.5-2.462c0.333-0.65,0.751-1.148,1.252-1.494c0.2-0.133,0.426-0.25,0.676-0.351
			c0.251-0.1,0.503-0.172,0.76-0.217c0.122-0.022,0.239-0.039,0.35-0.05c0.111-0.011,0.223-0.016,0.334-0.016
			c0.067,0,0.13,0.002,0.192,0.008c0.061,0.006,0.125,0.008,0.191,0.008c0.223,0.034,0.442,0.081,0.659,0.142
			C54.317,8.507,54.521,8.583,54.709,8.671z M56.212,12.843c0-1.346,0.353-2.428,1.06-3.246c0.706-0.817,1.633-1.227,2.779-1.227
			c0.612,0,1.157,0.105,1.635,0.317c0.479,0.212,0.902,0.535,1.269,0.968c0.344,0.4,0.595,0.848,0.751,1.344
			c0.156,0.495,0.233,1.087,0.233,1.777c0,0.734-0.086,1.363-0.259,1.886c-0.172,0.523-0.442,0.995-0.81,1.418
			c-0.322,0.367-0.709,0.653-1.16,0.859c-0.451,0.206-1.004,0.31-1.66,0.31c-1.158,0-2.087-0.398-2.788-1.194
			C56.562,15.261,56.212,14.19,56.212,12.843z M61.052,10.474c-0.111-0.145-0.25-0.256-0.417-0.333
			c-0.166-0.079-0.35-0.117-0.55-0.117c-0.268,0-0.504,0.078-0.71,0.234c-0.205,0.156-0.353,0.367-0.441,0.634
			c-0.079,0.223-0.137,0.49-0.176,0.801c-0.039,0.312-0.059,0.679-0.059,1.102c0,0.489,0.025,0.915,0.075,1.276
			c0.05,0.362,0.119,0.654,0.208,0.877c0.079,0.189,0.201,0.339,0.367,0.45c0.167,0.111,0.345,0.189,0.535,0.234
			c0.034,0,0.07,0.003,0.109,0.008c0.039,0.006,0.081,0.008,0.125,0.008c0.489,0,0.843-0.228,1.061-0.684
			c0.217-0.457,0.325-1.19,0.325-2.204c0-0.579-0.037-1.057-0.108-1.435C61.322,10.947,61.208,10.663,61.052,10.474z M78.125,11.825
			v-0.417h1.871v0.1c0,0.634-0.042,1.205-0.126,1.711c-0.083,0.506-0.219,0.971-0.409,1.394l2.487,2.469h-3.104l-0.702-0.7
			c-0.022,0.022-0.049,0.047-0.083,0.075c-0.032,0.028-0.067,0.053-0.099,0.074c-0.079,0.045-0.156,0.093-0.233,0.143
			c-0.079,0.051-0.156,0.098-0.234,0.143c-0.056,0.032-0.114,0.062-0.175,0.092c-0.062,0.027-0.12,0.053-0.176,0.074
			c-0.278,0.1-0.602,0.178-0.967,0.234c-0.368,0.056-0.774,0.084-1.219,0.084c-1.336,0-2.367-0.273-3.095-0.819
			c-0.729-0.545-1.094-1.318-1.094-2.32c0-0.656,0.173-1.221,0.518-1.694c0.345-0.473,0.868-0.87,1.569-1.193
			c-0.19-0.155-0.354-0.295-0.493-0.417s-0.253-0.245-0.342-0.367c-0.056-0.067-0.104-0.134-0.142-0.2
			c-0.039-0.067-0.075-0.133-0.108-0.2c-0.045-0.101-0.089-0.226-0.134-0.375c-0.045-0.151-0.078-0.303-0.1-0.459
			c-0.012-0.078-0.019-0.158-0.025-0.242S71.5,8.849,71.5,8.771c0-0.824,0.312-1.497,0.934-2.02
			c0.625-0.522,1.425-0.784,2.404-0.784c0.991,0,1.803,0.245,2.438,0.734c0.634,0.49,0.951,1.124,0.951,1.903
			c0,0.312-0.05,0.606-0.15,0.884c-0.1,0.278-0.239,0.518-0.417,0.718c-0.067,0.078-0.139,0.153-0.218,0.226
			c-0.077,0.072-0.166,0.142-0.267,0.208c-0.123,0.089-0.262,0.184-0.417,0.283c-0.157,0.101-0.345,0.206-0.568,0.317l-0.151,0.083
			l1.937,1.836c0.022-0.078,0.039-0.151,0.05-0.218l0.032-0.2c0.023-0.111,0.038-0.236,0.043-0.375S78.115,12.048,78.125,11.825z
			 M76.773,15.113l-2.721-2.62c-0.3,0.178-0.525,0.395-0.674,0.651c-0.152,0.256-0.226,0.551-0.226,0.885
			c0,0.522,0.164,0.929,0.492,1.218c0.328,0.29,0.788,0.434,1.376,0.434c0.402,0,0.749-0.047,1.044-0.142
			C76.359,15.444,76.596,15.303,76.773,15.113z M74.654,10.073c0.022,0.011,0.044,0.03,0.067,0.058
			c0.022,0.028,0.044,0.053,0.066,0.075c0.357-0.189,0.63-0.417,0.818-0.684c0.189-0.268,0.284-0.562,0.284-0.884
			c0-0.323-0.097-0.59-0.292-0.802c-0.194-0.211-0.442-0.317-0.743-0.317c-0.312,0-0.567,0.1-0.768,0.3
			c-0.201,0.2-0.3,0.461-0.3,0.785c0,0.078,0.005,0.15,0.017,0.216c0.012,0.067,0.028,0.14,0.05,0.217
			c0.045,0.134,0.131,0.278,0.258,0.434C74.24,9.628,74.421,9.828,74.654,10.073z M88.105,17.082l1.084-11.599h3.023l1.518,5.809
			c0.066,0.267,0.125,0.492,0.176,0.676c0.049,0.184,0.092,0.359,0.125,0.526c0.012,0.067,0.021,0.131,0.033,0.192
			s0.021,0.125,0.033,0.192c0.012,0.022,0.02,0.05,0.025,0.083c0.006,0.034,0.008,0.067,0.008,0.101
			c0.023-0.089,0.043-0.178,0.059-0.267c0.016-0.089,0.037-0.178,0.059-0.268c0.033-0.211,0.074-0.42,0.125-0.626
			s0.109-0.426,0.176-0.659l1.568-5.758h3.055l1.033,11.599h-2.301l-0.436-6.191c-0.01-0.245-0.025-0.467-0.041-0.667
			c-0.018-0.2-0.031-0.4-0.043-0.601c-0.01-0.089-0.016-0.184-0.016-0.283V9.038c-0.021,0.101-0.043,0.195-0.059,0.284
			c-0.018,0.089-0.035,0.172-0.059,0.25c-0.012,0.044-0.02,0.089-0.023,0.133c-0.008,0.044-0.016,0.089-0.025,0.133
			c-0.033,0.133-0.07,0.27-0.109,0.409c-0.039,0.139-0.086,0.303-0.143,0.492l-1.836,6.342h-2.053l-1.652-6.091
			c-0.021-0.101-0.049-0.22-0.084-0.359c-0.033-0.139-0.072-0.287-0.117-0.442c0-0.022-0.002-0.039-0.006-0.05
			c-0.006-0.012-0.01-0.028-0.01-0.05c-0.066-0.278-0.125-0.534-0.176-0.768l-0.074-0.351v0.333c0,0.111-0.006,0.228-0.016,0.351
			c0,0.223-0.006,0.445-0.018,0.667s-0.027,0.457-0.049,0.701l-0.402,6.058H88.105z M105.564,15.664
			c0.389,0,0.762-0.072,1.117-0.217s0.707-0.356,1.053-0.635l0.867,1.336c-0.49,0.4-0.998,0.695-1.527,0.884
			c-0.529,0.19-1.094,0.284-1.693,0.284c-1.225,0-2.203-0.398-2.938-1.194c-0.736-0.795-1.104-1.866-1.104-3.212
			c0-0.769,0.086-1.422,0.252-1.961c0.166-0.54,0.439-1.015,0.818-1.427c0.355-0.39,0.75-0.679,1.184-0.868
			c0.434-0.189,0.936-0.284,1.504-0.284c0.488,0,0.953,0.078,1.393,0.234s0.799,0.378,1.076,0.667
			c0.389,0.4,0.676,0.901,0.859,1.502c0.184,0.601,0.275,1.346,0.275,2.236v0.518h-4.939v0.067c0,0.657,0.156,1.166,0.467,1.527
			C104.541,15.483,104.984,15.664,105.564,15.664z M103.795,11.859v0.033h2.586v-0.101c0-0.322-0.02-0.578-0.057-0.767
			c-0.039-0.189-0.109-0.362-0.209-0.517c-0.111-0.167-0.248-0.292-0.41-0.376c-0.162-0.083-0.352-0.125-0.576-0.125
			c-0.422,0-0.75,0.162-0.984,0.484C103.91,10.813,103.795,11.269,103.795,11.859z M115.01,4.732l2.221,0.351v8.879
			c0,0.957,0.027,1.652,0.084,2.086c0.055,0.434,0.121,0.746,0.199,0.935c0,0.023,0.002,0.042,0.008,0.059s0.014,0.031,0.027,0.041
			h-2.006c-0.031-0.066-0.057-0.139-0.074-0.216c-0.016-0.078-0.035-0.173-0.059-0.284c-0.277,0.244-0.578,0.424-0.9,0.534
			c-0.322,0.111-0.678,0.167-1.068,0.167c-1.08,0-1.939-0.391-2.578-1.168c-0.641-0.779-0.959-1.83-0.959-3.155
			c0-1.334,0.338-2.42,1.018-3.254c0.678-0.835,1.557-1.252,2.637-1.252c0.311,0,0.59,0.04,0.834,0.117
			c0.246,0.078,0.473,0.201,0.686,0.367c-0.012-0.078-0.023-0.211-0.035-0.4c-0.01-0.189-0.021-0.389-0.033-0.601V4.732z
			 M115.043,14.863v-4.073c-0.211-0.189-0.416-0.328-0.617-0.417c-0.199-0.09-0.4-0.134-0.602-0.134c-0.5,0-0.863,0.217-1.092,0.651
			c-0.229,0.434-0.342,1.13-0.342,2.086c0,0.913,0.113,1.546,0.342,1.902c0.229,0.356,0.631,0.534,1.209,0.534
			c0.033,0,0.068-0.002,0.102-0.008c0.033-0.006,0.07-0.009,0.115-0.009c0.168-0.033,0.326-0.097,0.477-0.192
			c0.15-0.094,0.275-0.191,0.375-0.292c0-0.011,0.004-0.02,0.01-0.025L115.043,14.863z M119.416,17.082V8.688l2.238-0.35v8.745
			H119.416z M119.166,6.184c0-0.389,0.139-0.718,0.418-0.984c0.277-0.268,0.605-0.401,0.984-0.401s0.697,0.133,0.959,0.401
			c0.262,0.267,0.393,0.595,0.393,0.984c0,0.378-0.133,0.704-0.4,0.977c-0.266,0.272-0.596,0.409-0.984,0.409
			c-0.379,0-0.701-0.136-0.969-0.409C119.301,6.888,119.166,6.562,119.166,6.184z M124.289,11.158l-0.951-1.602
			c0.123-0.078,0.234-0.147,0.334-0.209c0.1-0.061,0.201-0.114,0.301-0.159c0.033-0.022,0.072-0.044,0.115-0.066l0.137-0.067
			c0.064-0.022,0.141-0.053,0.225-0.091c0.084-0.04,0.176-0.075,0.275-0.109c0.266-0.111,0.521-0.203,0.768-0.275
			c0.244-0.072,0.488-0.126,0.734-0.159c0.133-0.022,0.27-0.039,0.408-0.05c0.139-0.011,0.281-0.017,0.424-0.017
			c0.725,0,1.322,0.128,1.795,0.384c0.475,0.256,0.793,0.623,0.961,1.102c0.01,0.022,0.02,0.042,0.025,0.058
			c0.006,0.017,0.008,0.037,0.008,0.059c0.045,0.156,0.074,0.328,0.092,0.518c0.018,0.189,0.025,0.49,0.025,0.901l-0.051,2.87v0.151
			c0,0.367,0.033,0.659,0.1,0.876c0.068,0.217,0.195,0.42,0.385,0.609c0.043,0.044,0.092,0.089,0.143,0.133
			c0.051,0.045,0.107,0.089,0.174,0.134l-1.184,1.369c-0.256-0.124-0.494-0.273-0.709-0.451c-0.219-0.178-0.383-0.373-0.492-0.584
			c-0.113,0.1-0.193,0.175-0.244,0.225c-0.049,0.05-0.096,0.092-0.141,0.125l-0.033,0.034c-0.012,0.011-0.025,0.022-0.041,0.032
			c-0.018,0.012-0.037,0.023-0.059,0.034c-0.213,0.144-0.463,0.255-0.754,0.334c-0.287,0.077-0.611,0.117-0.967,0.117
			c-0.945,0-1.67-0.231-2.178-0.693c-0.506-0.461-0.76-1.115-0.76-1.961c0-1.001,0.346-1.741,1.035-2.22s1.713-0.718,3.07-0.718
			h0.301c0.057,0,0.123,0.006,0.201,0.017v-0.351c0-0.479-0.064-0.809-0.191-0.993c-0.129-0.184-0.398-0.275-0.811-0.275
			c-0.355,0-0.744,0.083-1.16,0.25C125.184,10.607,124.746,10.846,124.289,11.158z M127.695,15.18l0.033-1.835h-0.102
			c-0.777,0-1.32,0.089-1.627,0.267c-0.305,0.178-0.459,0.523-0.459,1.035c0,0.333,0.096,0.603,0.285,0.809
			c0.188,0.206,0.422,0.309,0.701,0.309c0.209,0,0.416-0.053,0.617-0.159C127.344,15.5,127.527,15.358,127.695,15.18z"/>
		<path id="ACCELERATOR" d="M34.702,27.703h-1.432l-0.569-1.479h-2.604l-0.538,1.479h-1.396l2.538-6.516h1.391L34.702,27.703z
			 M32.28,25.125l-0.898-2.418l-0.88,2.418H32.28z M42.916,25.307l1.275,0.406c-0.196,0.711-0.521,1.238-0.976,1.584
			c-0.454,0.346-1.031,0.518-1.731,0.518c-0.865,0-1.577-0.295-2.134-0.887c-0.557-0.592-0.835-1.4-0.835-2.424
			c0-1.086,0.28-1.928,0.84-2.527c0.56-0.602,1.296-0.9,2.209-0.9c0.797,0,1.445,0.236,1.943,0.707
			c0.296,0.279,0.519,0.678,0.666,1.199l-1.302,0.311c-0.077-0.338-0.237-0.604-0.482-0.799c-0.245-0.195-0.542-0.293-0.892-0.293
			c-0.483,0-0.875,0.174-1.176,0.52s-0.451,0.908-0.451,1.686c0,0.822,0.147,1.41,0.445,1.76c0.296,0.35,0.681,0.523,1.155,0.523
			c0.35,0,0.65-0.109,0.902-0.332C42.625,26.135,42.806,25.785,42.916,25.307z M52.835,25.307l1.275,0.406
			c-0.196,0.711-0.521,1.238-0.975,1.584c-0.455,0.346-1.032,0.518-1.732,0.518c-0.865,0-1.577-0.295-2.133-0.887
			c-0.558-0.592-0.836-1.4-0.836-2.424c0-1.086,0.279-1.928,0.84-2.527c0.56-0.602,1.296-0.9,2.209-0.9
			c0.797,0,1.444,0.236,1.942,0.707c0.296,0.279,0.519,0.678,0.666,1.199l-1.302,0.311c-0.076-0.338-0.237-0.604-0.482-0.799
			c-0.245-0.195-0.542-0.293-0.892-0.293c-0.483,0-0.874,0.174-1.175,0.52c-0.3,0.346-0.451,0.908-0.451,1.686
			c0,0.822,0.147,1.41,0.445,1.76c0.296,0.35,0.681,0.523,1.156,0.523c0.349,0,0.65-0.109,0.902-0.332
			C52.544,26.135,52.725,25.785,52.835,25.307z M58.585,27.703v-6.516h4.832v1.102h-3.516v1.445h3.272v1.098h-3.272v1.773h3.641
			v1.098H58.585z M68.039,27.703V21.24h1.316v5.365h3.271v1.098H68.039z M76.91,27.703v-6.516h4.832v1.102h-3.516v1.445h3.271v1.098
			h-3.271v1.773h3.64v1.098H76.91z M86.332,27.703v-6.516h2.77c0.695,0,1.201,0.059,1.518,0.176s0.568,0.324,0.758,0.625
			c0.189,0.299,0.283,0.641,0.283,1.025c0,0.49-0.143,0.893-0.43,1.213c-0.289,0.316-0.717,0.518-1.289,0.602
			c0.283,0.166,0.518,0.348,0.703,0.547c0.188,0.197,0.436,0.551,0.75,1.057l0.795,1.271h-1.572l-0.953-1.418
			c-0.338-0.506-0.568-0.826-0.691-0.957c-0.125-0.133-0.258-0.223-0.396-0.271s-0.359-0.074-0.662-0.074h-0.268v2.721H86.332z
			 M87.646,23.943h0.975c0.631,0,1.025-0.027,1.182-0.08c0.156-0.055,0.281-0.146,0.369-0.275c0.09-0.131,0.133-0.295,0.133-0.49
			c0-0.219-0.059-0.396-0.174-0.531c-0.117-0.133-0.283-0.219-0.496-0.254c-0.107-0.016-0.428-0.023-0.961-0.023h-1.027V23.943z
			 M102.123,27.703h-1.432l-0.568-1.479h-2.605l-0.537,1.479h-1.396l2.539-6.516h1.391L102.123,27.703z M99.701,25.125l-0.898-2.418
			l-0.879,2.418H99.701z M106.957,27.703v-5.414h-1.934v-1.102h5.18v1.102h-1.93v5.414H106.957z M113.967,24.484
			c0-0.662,0.1-1.221,0.297-1.67c0.148-0.332,0.352-0.631,0.607-0.895s0.537-0.459,0.842-0.586c0.406-0.172,0.875-0.258,1.404-0.258
			c0.961,0,1.73,0.297,2.307,0.893s0.863,1.424,0.863,2.484c0,1.053-0.287,1.877-0.859,2.471c-0.57,0.594-1.334,0.891-2.291,0.891
			c-0.971,0-1.74-0.295-2.312-0.887S113.967,25.523,113.967,24.484z M115.322,24.441c0,0.738,0.17,1.297,0.512,1.678
			c0.34,0.381,0.773,0.57,1.297,0.57c0.525,0,0.955-0.188,1.293-0.566c0.336-0.377,0.502-0.943,0.502-1.699
			c0-0.748-0.162-1.305-0.49-1.672c-0.326-0.367-0.762-0.551-1.305-0.551s-0.979,0.186-1.311,0.557
			C115.488,23.131,115.322,23.691,115.322,24.441z M124.664,27.703v-6.516h2.77c0.695,0,1.203,0.059,1.518,0.176
			c0.316,0.117,0.568,0.324,0.758,0.625c0.191,0.299,0.285,0.641,0.285,1.025c0,0.49-0.145,0.893-0.432,1.213
			c-0.287,0.316-0.717,0.518-1.289,0.602c0.285,0.166,0.52,0.348,0.705,0.547c0.186,0.197,0.434,0.551,0.748,1.057l0.797,1.271
			h-1.574l-0.951-1.418c-0.338-0.506-0.568-0.826-0.693-0.957c-0.125-0.133-0.256-0.223-0.396-0.271
			c-0.139-0.049-0.359-0.074-0.662-0.074h-0.266v2.721H124.664z M125.98,23.943h0.973c0.631,0,1.025-0.027,1.184-0.08
			c0.156-0.055,0.279-0.146,0.369-0.275c0.088-0.131,0.133-0.295,0.133-0.49c0-0.219-0.059-0.396-0.176-0.531
			c-0.117-0.133-0.283-0.219-0.496-0.254c-0.107-0.016-0.428-0.023-0.961-0.023h-1.025V23.943z"/>
	</g>
</g>
</svg>
