<?xml version="1.0" encoding="utf-8"?>
<svg
  xmlns="http://www.w3.org/2000/svg"
  width="54"
  height="42"
  viewBox="0 0 54 42"
>
  <path
    d="M49.5 0H4.5C1.96875 0 0 2.0625 0 4.5V6H54V4.5C54 2.0625 51.9375 0 49.5 0ZM0 37.5C0 40.0312 1.96875 42 4.5 42H49.5C51.9375 42 54 40.0312 54 37.5V9H0V37.5ZM33 15.75C33 15.375 33.2812 15 33.75 15H47.25C47.625 15 48 15.375 48 15.75V17.25C48 17.7188 47.625 18 47.25 18H33.75C33.2812 18 33 17.7188 33 17.25V15.75ZM33 21.75C33 21.375 33.2812 21 33.75 21H47.25C47.625 21 48 21.375 48 21.75V23.25C48 23.7188 47.625 24 47.25 24H33.75C33.2812 24 33 23.7188 33 23.25V21.75ZM33 27.75C33 27.375 33.2812 27 33.75 27H47.25C47.625 27 48 27.375 48 27.75V29.25C48 29.7188 47.625 30 47.25 30H33.75C33.2812 30 33 29.7188 33 29.25V27.75ZM16.5 15C19.7812 15 22.5 17.7188 22.5 21C22.5 24.375 19.7812 27 16.5 27C13.125 27 10.5 24.375 10.5 21C10.5 17.7188 13.125 15 16.5 15ZM6.28125 34.2188C7.03125 31.7812 9.28125 30 12 30H12.75C13.875 30.5625 15.0938 30.75 16.5 30.75C17.8125 30.75 19.0312 30.5625 20.1562 30H21C23.625 30 25.875 31.7812 26.625 34.2188C27 35.1562 26.1562 36 25.2188 36H7.6875C6.75 36 5.90625 35.0625 6.28125 34.2188Z"
  />
</svg>
