<?xml version="1.0" encoding="utf-8"?>
<svg
  xmlns="http://www.w3.org/2000/svg"
  width="50"
  height="50"
  viewBox="0 0 37.496 50"
>
  <path
    d="M35 .288l-3.75 4.375L25.935.288a1.553 1.553 0 0 0-1.875 0l-5.312 4.375L13.436.288a1.553 1.553 0 0 0-1.875 0L6.249 4.663 2.5.288A1.562 1.562 0 0 0 0 1.538v46.87a1.562 1.562 0 0 0 2.5 1.25l3.75-4.375 5.312 4.375a1.553 1.553 0 0 0 1.875 0l5.312-4.375 5.312 4.375a1.553 1.553 0 0 0 1.875 0l5.312-4.375L35 49.658a1.563 1.563 0 0 0 2.5-1.25V1.538A1.562 1.562 0 0 0 35 .288zm-3.75 34.84a.783.783 0 0 1-.781.781H7.031a.783.783 0 0 1-.781-.781v-1.562a.783.783 0 0 1 .781-.781h23.435a.783.783 0 0 1 .781.781zm0-9.374a.783.783 0 0 1-.781.781H7.031a.783.783 0 0 1-.781-.781v-1.562a.783.783 0 0 1 .781-.781h23.435a.783.783 0 0 1 .781.781zm0-9.374a.783.783 0 0 1-.781.781H7.031a.783.783 0 0 1-.781-.781v-1.562a.783.783 0 0 1 .781-.781h23.435a.783.783 0 0 1 .781.781z"
    transform="translate(0 .027)"
  />
</svg>
