<?xml version="1.0" encoding="utf-8"?>
<svg
  xmlns="http://www.w3.org/2000/svg"
  width="50"
  height="50"
  viewBox="0 0 50 35"
>
  <path
    d="M47.5 32h-45A2.5 2.5 0 0 0 0 34.5v30A2.5 2.5 0 0 0 2.5 67h45a2.5 2.5 0 0 0 2.5-2.5v-30a2.5 2.5 0 0 0-2.5-2.5zM13.75 55.116v1.259a.625.625 0 0 1-.625.625h-1.25a.625.625 0 0 1-.625-.625V55.1a4.473 4.473 0 0 1-2.45-.884.626.626 0 0 1-.045-.948l.918-.876a.641.641 0 0 1 .791-.057 1.881 1.881 0 0 0 1 .291h2.2a.982.982 0 0 0 .922-1.03 1.02 1.02 0 0 0-.686-.996l-3.516-1.055a3.536 3.536 0 0 1-2.467-3.39 3.479 3.479 0 0 1 3.334-3.521v-1.259a.625.625 0 0 1 .625-.625h1.25a.625.625 0 0 1 .625.625v1.273a4.467 4.467 0 0 1 2.451.887.626.626 0 0 1 .045.948l-.918.876a.641.641 0 0 1-.791.057 1.874 1.874 0 0 0-1-.291h-2.2a.982.982 0 0 0-.922 1.03 1.02 1.02 0 0 0 .685.995l3.515 1.05a3.536 3.536 0 0 1 2.467 3.39 3.479 3.479 0 0 1-3.334 3.521zm18.75-1.241a.625.625 0 0 1-.625.625h-8.75a.625.625 0 0 1-.625-.625v-1.25a.625.625 0 0 1 .625-.625h8.75a.625.625 0 0 1 .625.625zm12.5 0a.625.625 0 0 1-.625.625h-6.25a.625.625 0 0 1-.625-.625v-1.25a.625.625 0 0 1 .625-.625h6.25a.625.625 0 0 1 .625.625zm0-7.5a.625.625 0 0 1-.625.625h-21.25a.625.625 0 0 1-.625-.625v-1.25a.625.625 0 0 1 .625-.625h21.25a.625.625 0 0 1 .625.625z"
    transform="translate(0 -32)"
  />
</svg>
