<?xml version="1.0" encoding="utf-8"?>
<svg
  xmlns="http://www.w3.org/2000/svg"
  width="50"
  height="50"
  viewBox="0 0 50 40"
>
  <path
    d="M10 27.5H2.5A2.5 2.5 0 0 0 0 30v7.5A2.5 2.5 0 0 0 2.5 40H10a2.5 2.5 0 0 0 2.5-2.5V30a2.5 2.5 0 0 0-2.5-2.5zm-1.875-6.25h15V25h3.75v-3.75h15V25h3.75v-4.5a3 3 0 0 0-3-3h-15.75v-5H30a2.5 2.5 0 0 0 2.5-2.5V2.5A2.5 2.5 0 0 0 30 0H20a2.5 2.5 0 0 0-2.5 2.5V10a2.5 2.5 0 0 0 2.5 2.5h3.125v5H7.376a3 3 0 0 0-3 3V25h3.75zM28.75 27.5h-7.5a2.5 2.5 0 0 0-2.5 2.5v7.5a2.5 2.5 0 0 0 2.5 2.5h7.5a2.5 2.5 0 0 0 2.5-2.5V30a2.5 2.5 0 0 0-2.5-2.5zm18.75 0H40a2.5 2.5 0 0 0-2.5 2.5v7.5A2.5 2.5 0 0 0 40 40h7.5a2.5 2.5 0 0 0 2.5-2.5V30a2.5 2.5 0 0 0-2.5-2.5z"
  />
</svg>
