<?xml version="1.0" encoding="UTF-8" standalone="no"?>
<!-- Generator: Adobe Illustrator 18.0.0, SVG Export Plug-In . SVG Version: 6.00 Build 0)  -->

<svg
   xmlns:dc="http://purl.org/dc/elements/1.1/"
   xmlns:cc="http://creativecommons.org/ns#"
   xmlns:rdf="http://www.w3.org/1999/02/22-rdf-syntax-ns#"
   xmlns:svg="http://www.w3.org/2000/svg"
   xmlns="http://www.w3.org/2000/svg"
   xmlns:sodipodi="http://sodipodi.sourceforge.net/DTD/sodipodi-0.dtd"
   xmlns:inkscape="http://www.inkscape.org/namespaces/inkscape"
   version="1.1"
   id="Layer_1"
   x="0px"
   y="0px"
   viewBox="0 0 1152 576"
   enable-background="new 0 0 576 576"
   xml:space="preserve"
   inkscape:version="0.91 r13725"
   sodipodi:docname="404_EN_wide.svg"

><metadata
     id="metadata3457"><rdf:RDF><cc:Work
         rdf:about=""><dc:format>image/svg+xml</dc:format><dc:type
           rdf:resource="http://purl.org/dc/dcmitype/StillImage" /><dc:title></dc:title></cc:Work></rdf:RDF></metadata><defs
     id="defs3455" /><sodipodi:namedview
     pagecolor="#ffffff"
     bordercolor="#666666"
     borderopacity="1"
     objecttolerance="10"
     gridtolerance="10"
     guidetolerance="10"
     inkscape:pageopacity="0"
     inkscape:pageshadow="2"
     inkscape:window-width="1920"
     inkscape:window-height="1113"
     id="namedview3453"
     showgrid="false"
     inkscape:zoom="1.5798611"
     inkscape:cx="288"
     inkscape:cy="288"
     inkscape:window-x="0"
     inkscape:window-y="23"
     inkscape:window-maximized="0"
     inkscape:current-layer="Layer_1" /><g
     enable-background="new    "
     id="g3337"
     transform="translate(286.75,0)"><path
       d="m 193.4,266.9 -38.3,0 0,59.2 -28,0 0,-59.2 -125.3,0 0,-25.6 122.3,-174.3 31,0 0,173.3 38.3,0 0,26.6 0,0 z m -66.3,-26.6 0,-85.7 c 0,-16.8 0.6,-35.8 1.8,-56.9 l -1.4,0 c -5.6,11.3 -10.9,20.6 -15.9,28 L 31,240.3 l 96.1,0 z"
       id="path3339"
       inkscape:connector-curvature="0"
       style="fill:#3f403f" /><path
       d="m 374.3,196.9 c 0,44.5 -7,77.8 -21.1,99.8 -14,22 -35.5,33 -64.4,33 -27.7,0 -48.8,-11.3 -63.3,-33.8 -14.5,-22.5 -21.7,-55.5 -21.7,-99 0,-44.9 7,-78.2 21,-100 14,-21.7 35.3,-32.6 64,-32.6 28,0 49.2,11.3 63.7,34 14.5,22.7 21.8,55.6 21.8,98.6 z m -140.9,0 c 0,37.5 4.4,64.8 13.2,81.9 8.8,17.1 22.9,25.6 42.1,25.6 19.5,0 33.6,-8.7 42.4,-26 8.8,-17.3 13.1,-44.5 13.1,-81.5 0,-37 -4.4,-64.1 -13.1,-81.4 -8.8,-17.2 -22.9,-25.8 -42.4,-25.8 -19.3,0 -33.3,8.5 -42.1,25.5 -8.8,17 -13.2,44.2 -13.2,81.7 z"
       id="path3341"
       inkscape:connector-curvature="0"
       style="fill:#3f403f" /><path
       d="m 576.6,266.9 -38.3,0 0,59.2 -28,0 0,-59.2 -125.3,0 0,-25.6 122.4,-174.3 31,0 0,173.3 38.3,0 0,26.6 -0.1,0 z m -66.2,-26.6 0,-85.7 c 0,-16.8 0.6,-35.8 1.8,-56.9 l -1.4,0 c -5.6,11.3 -10.9,20.6 -15.9,28 l -80.6,114.6 96.1,0 z"
       id="path3343"
       inkscape:connector-curvature="0"
       style="fill:#3f403f" /></g><g
     enable-background="new    "
     id="g3345"
     transform="translate(288,0)"><path
       d="m 41.4,375.4 c 0,5.8 -1.8,10.1 -5.5,13.2 -3.7,3.1 -8.8,4.6 -15.5,4.6 l -5,0 0,18.8 -11.4,0 0,-53.4 17.3,0 c 6.5,0 11.5,1.4 15,4.2 3.4,2.8 5.1,7 5.1,12.6 z m -25.9,8.4 3.8,0 c 3.6,0 6.1,-0.7 7.9,-2.1 1.8,-1.4 2.6,-3.4 2.6,-6 0,-2.6 -0.7,-4.6 -2.2,-5.9 -1.5,-1.3 -3.8,-1.9 -6.9,-1.9 l -5.3,0 0.1,15.9 0,0 z"
       id="path3347"
       inkscape:connector-curvature="0"
       style="fill:#3f403f" /><path
       d="m 76.1,412 -2.2,-5.6 -0.3,0 c -1.9,2.4 -3.9,4 -5.9,4.9 -2,0.9 -4.7,1.4 -7.8,1.4 -4,0 -7.1,-1.1 -9.4,-3.4 -2.3,-2.3 -3.5,-5.5 -3.5,-9.5 0,-4.4 1.5,-7.5 4.6,-9.6 3.1,-2.1 7.7,-3.2 13.9,-3.4 l 7.1,-0.2 0,-1.8 c 0,-4.2 -2.2,-6.2 -6.4,-6.2 -3.3,0 -7.1,1 -11.7,3 l -3.8,-7.5 c 4.8,-2.5 10,-3.7 15.9,-3.7 5.6,0 9.8,1.2 12.8,3.6 3,2.4 4.5,6 4.5,10.9 l 0,27.1 -7.8,0 0,0 z m -3.4,-18.9 -4.4,0.1 c -3.3,0.1 -5.8,0.7 -7.3,1.8 -1.6,1.1 -2.4,2.7 -2.4,4.9 0,3.2 1.8,4.7 5.5,4.7 2.6,0 4.7,-0.7 6.2,-2.2 1.6,-1.5 2.4,-3.5 2.4,-6 l 0,-3.3 z"
       id="path3349"
       inkscape:connector-curvature="0"
       style="fill:#3f403f" /><path
       d="m 130.7,371.3 0,5.7 -6.4,1.7 c 1.2,1.8 1.8,3.9 1.8,6.1 0,4.4 -1.6,7.8 -4.7,10.2 -3.1,2.5 -7.4,3.7 -12.9,3.7 l -2.1,-0.1 -1.7,-0.2 c -1.2,0.9 -1.8,1.9 -1.8,2.9 0,1.6 2.1,2.4 6.2,2.4 l 7,0 c 4.6,0 8,1 10.4,2.9 2.4,1.9 3.6,4.8 3.6,8.4 0,4.8 -2,8.4 -6,11.1 -4.1,2.6 -9.8,4 -17.4,4 -5.8,0 -10.2,-1 -13.2,-3 -3.1,-2 -4.6,-4.8 -4.6,-8.3 0,-2.5 0.8,-4.5 2.4,-6.1 1.6,-1.6 3.9,-2.9 6.8,-3.6 -1.2,-0.5 -2.2,-1.3 -3.1,-2.4 -0.9,-1.1 -1.3,-2.3 -1.3,-3.5 0,-1.6 0.5,-2.9 1.4,-3.9 0.9,-1 2.2,-2.1 4,-3.1 -2.2,-0.9 -3.9,-2.4 -5.2,-4.5 -1.3,-2.1 -1.9,-4.5 -1.9,-7.2 0,-4.5 1.5,-7.9 4.4,-10.3 3,-2.5 7.1,-3.7 12.6,-3.7 1.2,0 2.6,0.1 4.2,0.3 1.6,0.2 2.6,0.4 3.1,0.5 l 14.4,0 z m -32,46.5 c 0,1.5 0.8,2.8 2.3,3.6 1.5,0.9 3.6,1.3 6.2,1.3 4.1,0 7.2,-0.6 9.5,-1.7 2.3,-1.1 3.5,-2.6 3.5,-4.5 0,-1.5 -0.7,-2.6 -2.1,-3.2 -1.4,-0.6 -3.5,-0.9 -6.2,-0.9 l -5.9,0 c -2.1,0 -3.8,0.5 -5.2,1.5 -1.4,1 -2.1,2.3 -2.1,3.9 z m 4.2,-33.2 c 0,2.2 0.5,4 1.5,5.3 1,1.3 2.6,2 4.7,2 2.1,0 3.7,-0.6 4.7,-2 1,-1.3 1.5,-3.1 1.5,-5.3 0,-5 -2.1,-7.3 -6.1,-7.3 -4.2,-0.1 -6.3,2.4 -6.3,7.3 z"
       id="path3351"
       inkscape:connector-curvature="0"
       style="fill:#3f403f" /><path
       d="m 155.2,412.7 c -6.6,0 -11.9,-1.8 -15.6,-5.5 -3.8,-3.7 -5.7,-8.7 -5.7,-15.4 0,-6.8 1.7,-12.1 5.2,-15.9 3.5,-3.8 8.2,-5.6 14.4,-5.6 5.9,0 10.4,1.7 13.7,5 3.3,3.3 4.9,7.8 4.9,13.6 l 0,5.4 -26.7,0 c 0.1,3.2 1.1,5.7 2.9,7.4 1.8,1.8 4.3,2.7 7.4,2.7 2.5,0 4.9,-0.3 7,-0.8 2.2,-0.5 4.6,-1.3 6.9,-2.5 l 0,8.6 c -2,1 -4.1,1.7 -6.3,2.2 -2,0.6 -4.8,0.8 -8.1,0.8 z m -1.5,-34.3 c -2.4,0 -4.3,0.8 -5.7,2.3 -1.4,1.5 -2.2,3.6 -2.4,6.3 l 15.9,0 c 0,-2.8 -0.8,-4.9 -2.2,-6.3 -1.4,-1.5 -3.3,-2.3 -5.6,-2.3 z"
       id="path3353"
       inkscape:connector-curvature="0"
       style="fill:#3f403f" /><path
       d="m 237.4,412 -11.3,0 0,-23.8 c 0,-3 -0.5,-5.2 -1.6,-6.6 -1.1,-1.5 -2.8,-2.2 -5.1,-2.2 -3.2,0 -5.5,1 -6.8,3.1 -1.4,2.1 -2.1,5.6 -2.1,10.3 l 0,19.1 -11.3,0 0,-40.8 8.6,0 1.5,5.3 0.6,0 c 1.3,-2 3,-3.5 5.2,-4.5 2.2,-1 4.8,-1.5 7.5,-1.5 4.8,0 8.4,1.3 10.9,3.9 2.5,2.6 3.8,6.2 3.8,11.1 l 0.1,26.6 0,0 z"
       id="path3355"
       inkscape:connector-curvature="0"
       style="fill:#3f403f" /><path
       d="m 285.7,391.6 c 0,6.6 -1.8,11.8 -5.4,15.6 -3.6,3.8 -8.5,5.7 -14.9,5.7 -4,0 -7.4,-0.9 -10.5,-2.6 -3.1,-1.7 -5.4,-4.2 -7,-7.3 -1.6,-3.2 -2.5,-6.9 -2.5,-11.2 0,-6.6 1.8,-11.8 5.3,-15.6 3.6,-3.7 8.5,-5.6 14.9,-5.6 4,0 7.4,0.9 10.5,2.6 3.1,1.7 5.4,4.2 6.9,7.3 1.9,3.1 2.7,6.8 2.7,11.1 z m -28.6,0 c 0,4.1 0.7,7 2,9.1 1.4,2.1 3.6,3.1 6.5,3.1 2.9,0 5.2,-1 6.4,-3.1 1.3,-2.1 2,-5.2 2,-9.1 0,-4.1 -0.7,-7 -2,-9.1 -1.3,-2.1 -3.5,-3.1 -6.5,-3.1 -3,0 -5.2,1 -6.5,3 -1.4,2 -1.9,5.2 -1.9,9.2 z"
       id="path3357"
       inkscape:connector-curvature="0"
       style="fill:#3f403f" /><path
       d="m 311.6,403.9 c 2,0 4.4,-0.4 7.1,-1.3 l 0,8.2 c -2.8,1.3 -6.2,1.9 -10.3,1.9 -4.6,0 -7.8,-1.1 -9.8,-3.4 -2.1,-2.3 -3.1,-5.7 -3.1,-10.1 l 0,-19.6 -5.4,0 0,-4.6 6.2,-3.8 3.3,-8.6 7.2,0 0,8.7 11.6,0 0,8.3 -11.6,0 0,19.6 c 0,1.6 0.5,2.8 1.4,3.5 1,0.7 1.9,1.2 3.4,1.2 z"
       id="path3359"
       inkscape:connector-curvature="0"
       style="fill:#3f403f" /><path
       d="m 386.4,379.6 -9.7,0 0,32.4 -11.3,0 0,-32.4 -6.2,0 0,-5.4 6.2,-3 0,-3 c 0,-4.7 1.2,-8 3.5,-10.2 2.3,-2.2 6,-3.2 11.1,-3.2 3.9,0 7.3,0.6 10.4,1.7 l -2.9,8.1 c -2.3,-0.7 -4.4,-1.1 -6.2,-1.1 -1.6,0 -2.8,0.5 -3.5,1.4 -0.7,0.9 -1.1,2.2 -1.1,3.6 l 0,2.6 9.7,0 0,8.5 0,0 z"
       id="path3361"
       inkscape:connector-curvature="0"
       style="fill:#3f403f" /><path
       d="m 429.6,391.6 c 0,6.6 -1.8,11.8 -5.4,15.6 -3.6,3.8 -8.5,5.7 -14.9,5.7 -4,0 -7.4,-0.9 -10.5,-2.6 -3.1,-1.7 -5.4,-4.2 -6.9,-7.3 -1.6,-3.2 -2.5,-6.9 -2.5,-11.2 0,-6.6 1.8,-11.8 5.3,-15.6 3.6,-3.7 8.5,-5.6 14.9,-5.6 4,0 7.4,0.9 10.5,2.6 3.1,1.7 5.4,4.2 7,7.3 1.7,3.1 2.5,6.8 2.5,11.1 z m -28.6,0 c 0,4.1 0.7,7 2,9.1 1.3,2.1 3.6,3.1 6.5,3.1 2.9,0 5.2,-1 6.4,-3.1 1.2,-2.1 2,-5.2 2,-9.1 0,-4.1 -0.7,-7 -2,-9.1 -1.3,-2 -3.5,-3.1 -6.5,-3.1 -3,0 -5.2,1 -6.5,3 -1.4,2 -1.9,5.2 -1.9,9.2 z"
       id="path3363"
       inkscape:connector-curvature="0"
       style="fill:#3f403f" /><path
       d="m 467.4,412 -1.5,-5.3 -0.7,0 c -1.2,1.9 -2.9,3.4 -5.2,4.4 -2.2,1 -4.8,1.6 -7.5,1.6 -4.9,0 -8.5,-1.3 -11,-3.9 -2.5,-2.6 -3.7,-6.2 -3.7,-11.1 l 0,-26.6 11.3,0 0,23.9 c 0,3 0.5,5.2 1.6,6.6 1.1,1.4 2.8,2.2 5.1,2.2 3.2,0 5.5,-1 6.8,-3.1 1.4,-2.1 2.1,-5.6 2.1,-10.3 l 0,-19.1 11.3,0 0,40.7 -8.6,0 0,0 z"
       id="path3365"
       inkscape:connector-curvature="0"
       style="fill:#3f403f" /><path
       d="m 525.1,412 -11.3,0 0,-23.8 c 0,-3 -0.5,-5.2 -1.6,-6.6 -1.1,-1.5 -2.8,-2.2 -5.1,-2.2 -3.2,0 -5.5,1 -6.8,3.1 -1.4,2.1 -2.1,5.6 -2.1,10.3 l 0,19.1 -11.3,0 0,-40.8 8.6,0 1.5,5.3 0.6,0 c 1.3,-2 3,-3.5 5.2,-4.5 2.2,-1 4.8,-1.5 7.5,-1.5 4.8,0 8.4,1.3 10.9,3.9 2.5,2.6 3.8,6.2 3.8,11.1 l 0.1,26.6 0,0 z"
       id="path3367"
       inkscape:connector-curvature="0"
       style="fill:#3f403f" /><path
       d="m 548.9,412.7 c -4.9,0 -8.6,-1.9 -11.4,-5.6 -2.8,-3.8 -4.2,-8.8 -4.2,-15.5 0,-6.6 1.4,-11.9 4.3,-15.7 2.8,-3.8 6.7,-5.6 11.7,-5.6 5.2,0 9.2,2 11.9,6 l 0.4,0 c -0.6,-3.1 -0.9,-5.8 -0.9,-8.1 l 0,-13.1 11.3,0 0,56.7 -8.6,0 -2.2,-5.3 -0.5,0 c -2.6,4.3 -6.6,6.2 -11.8,6.2 z m 4,-8.8 c 2.9,0 5,-0.8 6.3,-2.5 1.4,-1.7 2.1,-4.5 2.2,-8.4 l 0,-1.2 c 0,-4.4 -0.7,-7.5 -2.1,-9.4 -1.4,-1.9 -3.6,-2.9 -6.6,-2.9 -2.5,0 -4.5,1.1 -5.9,3.2 -1.4,2.1 -2.1,5.2 -2.1,9.1 0,4 0.7,7 2.1,9 1.4,2.1 3.5,3.1 6.1,3.1 z"
       id="path3369"
       inkscape:connector-curvature="0"
       style="fill:#3f403f" /></g><g
     id="g3371"
     transform="translate(288,0)"><path
       d="m 98.6,487 -4.1,0 0,-15.6 -5.1,0 0,-3.3 14.4,0 0,3.3 -5.1,0 0,15.6 -0.1,0 z"
       id="path3373"
       inkscape:connector-curvature="0"
       style="fill:#3f403f" /><path
       d="m 118.5,487 -3.9,0 0,-8.4 c 0,-2.1 -0.8,-3.1 -2.3,-3.1 -1,0 -1.8,0.4 -2.5,1.2 -0.4,0.8 -0.8,2.1 -0.8,3.7 l 0,6.8 -3.9,0 0,-20.5 3.9,0 0,4.1 c 0,0.4 0,1 0,2.3 l 0,1.2 0.2,0 c 0.8,-1.4 2.3,-2.1 4.3,-2.1 1.6,0 3.1,0.4 3.9,1.4 0.8,1 1.2,2.3 1.2,3.9 l 0,9.4 -0.1,0 c 0,0 0,0.1 0,0.1 z"
       id="path3375"
       inkscape:connector-curvature="0"
       style="fill:#3f403f" /><path
       d="m 128,487.2 c -2.3,0 -4.1,-0.6 -5.5,-1.8 -1.2,-1.2 -2.1,-3.1 -2.1,-5.5 0,-2.5 0.6,-4.3 1.8,-5.8 1.2,-1.2 2.9,-2.1 5.1,-2.1 2.1,0 3.7,0.6 4.7,1.8 1.2,1.2 1.6,2.9 1.6,4.9 l 0,1.8 -9.4,0 c 0,1.2 0.4,2.1 1,2.7 0.6,0.6 1.4,1 2.7,1 0.8,0 1.6,0 2.5,-0.2 0.8,-0.2 1.6,-0.4 2.5,-0.8 l 0,3.1 c -0.6,0.4 -1.4,0.6 -2.3,0.8 -0.6,0.1 -1.6,0.1 -2.6,0.1 z M 127.4,475 c -0.8,0 -1.4,0.2 -2.1,0.8 -0.4,0.6 -0.8,1.2 -0.8,2.3 l 5.5,0 c 0,-1 -0.2,-1.6 -0.8,-2.3 -0.2,-0.6 -1,-0.8 -1.8,-0.8 z"
       id="path3377"
       inkscape:connector-curvature="0"
       style="fill:#3f403f" /><path
       d="m 149.3,487.2 c -1.6,0 -3.1,-0.6 -4.1,-1.8 l -0.2,0 c 0.2,1.2 0.2,1.8 0.2,2.1 l 0,6 -3.9,0 0,-21 3.3,0 0.6,1.8 0.2,0 c 1,-1.4 2.3,-2.3 4.1,-2.3 1.6,0 3.1,0.6 4.1,2.1 1,1.2 1.4,3.1 1.4,5.5 0,1.6 -0.2,2.9 -0.6,4.1 -0.4,1.2 -1,2.1 -1.8,2.7 -1,0.6 -2,0.8 -3.3,0.8 z m -1,-12 c -1,0 -1.6,0.2 -2.1,0.8 -0.4,0.6 -0.6,1.6 -0.6,3.1 l 0,0.4 c 0,1.6 0.2,2.7 0.6,3.3 0.4,0.6 1.2,1 2.3,1 1.8,0 2.7,-1.4 2.7,-4.3 0,-1.4 -0.2,-2.5 -0.6,-3.3 -0.6,-0.5 -1.5,-1 -2.3,-1 z"
       id="path3379"
       inkscape:connector-curvature="0"
       style="fill:#3f403f" /><path
       d="m 166.2,487 -0.8,-2.1 -0.2,0 c -0.6,0.8 -1.4,1.4 -2.1,1.8 -0.6,0.4 -1.6,0.4 -2.7,0.4 -1.4,0 -2.5,-0.4 -3.3,-1.2 -0.8,-0.8 -1.2,-1.8 -1.2,-3.5 0,-1.6 0.6,-2.7 1.6,-3.5 1,-0.8 2.7,-1.2 4.9,-1.2 l 2.5,0 0,-0.6 c 0,-1.4 -0.8,-2.3 -2.3,-2.3 -1.2,0 -2.5,0.4 -4.1,1 l -1.2,-2.7 c 1.6,-0.8 3.5,-1.2 5.5,-1.2 2.1,0 3.5,0.4 4.5,1.2 1,0.8 1.6,2.1 1.6,3.9 l 0,9.7 -2.9,0 0,0.3 0.2,0 0,0 z m -1.2,-6.8 -1.4,0 c -1.2,0 -2.1,0.2 -2.7,0.6 -0.6,0.4 -0.8,1 -0.8,1.6 0,1 0.6,1.6 1.8,1.6 0.8,0 1.6,-0.2 2.3,-0.8 0.6,-0.6 0.8,-1.2 0.8,-2.1 l 0,-0.9 0,0 z"
       id="path3381"
       inkscape:connector-curvature="0"
       style="fill:#3f403f" /><path
       d="m 184.5,472.4 0,2.1 -2.3,0.6 c 0.4,0.6 0.6,1.4 0.6,2.3 0,1.6 -0.6,2.9 -1.6,3.7 -1,0.8 -2.7,1.2 -4.5,1.2 l -0.7,0 -0.6,0 c -0.4,0.4 -0.6,0.6 -0.6,1 0,0.6 0.8,0.8 2.3,0.8 l 2.5,0 c 1.6,0 2.9,0.4 3.7,1 0.8,0.6 1.2,1.6 1.2,3.1 0,1.6 -0.6,3.1 -2.1,3.9 -1.4,1 -3.5,1.4 -6.2,1.4 -2.1,0 -3.5,-0.4 -4.7,-1 -1,-0.6 -1.6,-1.6 -1.6,-2.9 0,-0.8 0.2,-1.6 0.8,-2.3 0.6,-0.6 1.4,-1 2.5,-1.2 -0.4,-0.2 -0.8,-0.4 -1,-0.8 -0.2,-0.4 -0.4,-0.8 -0.4,-1.2 0,-0.6 0.2,-1 0.4,-1.4 0.4,-0.4 0.8,-0.8 1.4,-1 -0.8,-0.4 -1.4,-0.8 -1.8,-1.6 -0.4,-0.8 -0.6,-1.6 -0.6,-2.7 0,-1.6 0.6,-2.9 1.6,-3.7 1,-0.8 2.5,-1.2 4.5,-1.2 0.4,0 0.8,0 1.4,0.2 0.6,0 0.8,0.2 1,0.2 l 4.7,0 0,-0.5 0.1,0 z M 173.2,489 c 0,0.6 0.2,1 0.8,1.2 0.6,0.4 1.2,0.4 2.3,0.4 1.4,0 2.5,-0.2 3.3,-0.6 0.8,-0.4 1.2,-1 1.2,-1.6 0,-0.6 -0.2,-0.8 -0.6,-1.2 -0.4,-0.2 -1.2,-0.4 -2.3,-0.4 l -2.1,0 c -0.8,0 -1.4,0.2 -1.8,0.4 -0.6,0.8 -0.8,1.2 -0.8,1.8 z m 1.4,-11.9 c 0,0.8 0.2,1.4 0.6,1.8 0.4,0.4 0.8,0.6 1.6,0.6 0.8,0 1.2,-0.2 1.6,-0.6 0.4,-0.4 0.6,-1 0.6,-1.8 0,-1.8 -0.8,-2.7 -2.3,-2.7 -1.3,0.2 -2.1,1 -2.1,2.7 z"
       id="path3383"
       inkscape:connector-curvature="0"
       style="fill:#3f403f" /><path
       d="m 192.1,487.2 c -2.3,0 -4.1,-0.6 -5.5,-1.8 -1.2,-1.2 -2.1,-3.1 -2.1,-5.5 0,-2.5 0.6,-4.3 1.8,-5.8 1.2,-1.2 2.9,-2.1 5.1,-2.1 2.1,0 3.7,0.6 4.7,1.8 1.2,1.2 1.6,2.9 1.6,4.9 l 0,1.8 -9.4,0 c 0,1.2 0.4,2.1 1,2.7 0.6,0.6 1.4,1 2.7,1 0.8,0 1.6,0 2.5,-0.2 0.8,-0.2 1.6,-0.4 2.5,-0.8 l 0,3.1 c -0.6,0.4 -1.4,0.6 -2.3,0.8 -0.6,0.1 -1.4,0.1 -2.6,0.1 z M 191.5,475 c -0.8,0 -1.4,0.2 -2.1,0.8 -0.4,0.6 -0.8,1.2 -0.8,2.3 l 5.5,0 c 0,-1 -0.2,-1.6 -0.8,-2.3 -0.2,-0.6 -0.8,-0.8 -1.8,-0.8 z"
       id="path3385"
       inkscape:connector-curvature="0"
       style="fill:#3f403f" /><path
       d="m 203.6,472.4 4.3,0 2.7,8.2 c 0.2,0.6 0.4,1.6 0.4,2.5 l 0,0 c 0,-0.8 0.2,-1.6 0.6,-2.5 l 2.7,-8.2 4.3,0 -6.2,16.4 c -0.6,1.4 -1.4,2.7 -2.5,3.5 -1,0.8 -2.3,1.2 -3.7,1.2 -0.6,0 -1.4,0 -2.1,-0.2 l 0,-3.1 c 0.4,0.2 1,0.2 1.6,0.2 0.6,0 1.2,-0.2 1.8,-0.6 0.6,-0.4 1,-1 1.2,-1.8 l 0.2,-0.6 -5.3,-15 z"
       id="path3387"
       inkscape:connector-curvature="0"
       style="fill:#3f403f" /><path
       d="m 232.7,479.8 c 0,2.5 -0.6,4.3 -1.8,5.5 -1.2,1.4 -3.1,2.1 -5.1,2.1 -1.4,0 -2.7,-0.2 -3.7,-0.8 -1,-0.6 -1.8,-1.4 -2.5,-2.7 -0.7,-1.3 -0.8,-2.5 -0.8,-4.1 0,-2.5 0.6,-4.3 1.8,-5.5 1.2,-1.2 3.1,-2.1 5.3,-2.1 1.4,0 2.7,0.2 3.7,0.8 1,0.6 1.8,1.4 2.5,2.7 0.7,1.3 0.6,2.4 0.6,4.1 z m -10,0 c 0,1.4 0.2,2.5 0.6,3.3 0.4,0.8 1.2,1 2.3,1 1,0 1.8,-0.4 2.3,-1 0.4,-0.6 0.6,-1.8 0.6,-3.3 0,-1.4 -0.2,-2.5 -0.6,-3.3 -0.4,-0.8 -1.2,-1 -2.3,-1 -1,0 -1.8,0.4 -2.3,1 -0.4,0.6 -0.6,1.8 -0.6,3.3 z"
       id="path3389"
       inkscape:connector-curvature="0"
       style="fill:#3f403f" /><path
       d="m 244.9,487 -0.6,-1.8 0,0 c -0.4,0.6 -1,1.2 -1.8,1.6 -0.8,0.4 -1.6,0.6 -2.7,0.6 -1.6,0 -3.1,-0.4 -3.9,-1.4 -0.8,-0.8 -1.2,-2.3 -1.2,-3.9 l 0,-9.4 3.9,0 0,8.4 c 0,1 0.2,1.8 0.6,2.5 0.4,0.6 1,0.8 1.8,0.8 1,0 1.8,-0.4 2.5,-1 0.4,-0.8 0.8,-2.1 0.8,-3.7 l 0,-6.8 3.9,0 0,14.6 -3.3,0 0,-0.5 z"
       id="path3391"
       inkscape:connector-curvature="0"
       style="fill:#3f403f" /><path
       d="m 265.6,487 -0.8,-2.1 0,0 c -0.6,0.8 -1.4,1.4 -2.1,1.8 -0.6,0.4 -1.6,0.4 -2.7,0.4 -1.4,0 -2.5,-0.4 -3.3,-1.2 -0.8,-0.8 -1.2,-1.8 -1.2,-3.5 0,-1.6 0.6,-2.7 1.6,-3.5 1,-0.8 2.7,-1.2 4.9,-1.2 l 2.5,0 0,-0.6 c 0,-1.4 -0.8,-2.3 -2.3,-2.3 -1.2,0 -2.5,0.4 -4.1,1 l -1.2,-2.7 c 1.6,-0.8 3.5,-1.2 5.5,-1.2 2.1,0 3.5,0.4 4.5,1.2 1,0.8 1.6,2.1 1.6,3.9 l 0,9.7 -3.1,0 0,0.3 0.2,0 0,0 z m -1,-6.8 -1.4,0 c -1.2,0 -2.1,0.2 -2.7,0.6 -0.6,0.4 -0.8,1 -0.8,1.6 0,1 0.6,1.6 1.8,1.6 0.8,0 1.6,-0.2 2.3,-0.8 0.7,-0.6 0.8,-1.2 0.8,-2.1 l 0,-0.9 0,0 z"
       id="path3393"
       inkscape:connector-curvature="0"
       style="fill:#3f403f" /><path
       d="m 279.4,472.2 c 0.6,0 1,0 1.4,0.2 l -0.2,3.7 c -0.4,0 -0.6,-0.2 -1.2,-0.2 -1.2,0 -2.3,0.4 -2.9,1 -0.6,0.6 -1,1.6 -1,2.7 l 0,7.4 -3.9,0 0,-14.6 3.1,0 0.6,2.5 0.2,0 c 0.4,-0.8 1,-1.4 1.8,-2.1 0.2,-0.4 1.3,-0.6 2.1,-0.6 z"
       id="path3395"
       inkscape:connector-curvature="0"
       style="fill:#3f403f" /><path
       d="m 288.6,487.2 c -2.3,0 -4.1,-0.6 -5.5,-1.8 -1.2,-1.2 -2.1,-3.1 -2.1,-5.5 0,-2.5 0.6,-4.3 1.8,-5.8 1.2,-1.2 2.9,-2.1 5.1,-2.1 2.1,0 3.7,0.6 4.7,1.8 1.2,1.2 1.6,2.9 1.6,4.9 l 0,1.8 -9.4,0 c 0,1.2 0.4,2.1 1,2.7 0.6,0.6 1.4,1 2.7,1 0.8,0 1.6,0 2.5,-0.2 0.8,-0.2 1.6,-0.4 2.5,-0.8 l 0,3.1 c -0.6,0.4 -1.4,0.6 -2.3,0.8 -0.7,0.3 -1.4,0.1 -2.6,0.1 z M 288,475 c -0.8,0 -1.4,0.2 -2.1,0.8 -0.4,0.6 -0.8,1.2 -0.8,2.3 l 5.5,0 c 0,-1 -0.2,-1.6 -0.8,-2.3 -0.2,-0.6 -1,-0.8 -1.8,-0.8 z"
       id="path3397"
       inkscape:connector-curvature="0"
       style="fill:#3f403f" /><path
       d="m 308.1,484.1 c 0.6,0 1.4,-0.2 2.5,-0.4 l 0,2.9 c -1,0.4 -2.3,0.6 -3.7,0.6 -1.6,0 -2.7,-0.4 -3.5,-1.2 -0.8,-0.8 -1,-2.1 -1,-3.7 l 0,-7 -1.8,0 0,-1.6 2.3,-1.2 1.2,-3.1 2.5,0 0,3.1 4.1,0 0,3.1 -4.1,0 0,7 c 0,0.6 0.2,1 0.4,1.2 0.1,0.1 0.7,0.3 1.1,0.3 z"
       id="path3399"
       inkscape:connector-curvature="0"
       style="fill:#3f403f" /><path
       d="m 320.5,472.2 c 0.6,0 1,0 1.4,0.2 l -0.2,3.7 c -0.4,0 -0.6,-0.2 -1.2,-0.2 -1.2,0 -2.3,0.4 -2.9,1 -0.6,0.6 -1,1.6 -1,2.7 l 0,7.4 -3.9,0 0,-14.6 3.1,0 0.6,2.5 0.2,0 c 0.4,-0.8 1,-1.4 1.8,-2.1 0.4,-0.4 1.2,-0.6 2.1,-0.6 z"
       id="path3401"
       inkscape:connector-curvature="0"
       style="fill:#3f403f" /><path
       d="m 321.1,472.4 4.3,0 2.7,8.2 c 0.2,0.6 0.4,1.6 0.4,2.5 l 0,0 c 0,-0.8 0.2,-1.6 0.6,-2.5 l 2.7,-8.2 4.3,0 -6.2,16.4 c -0.6,1.4 -1.4,2.7 -2.5,3.5 -1,0.8 -2.3,1.2 -3.7,1.2 -0.6,0 -1.4,0 -2.1,-0.2 l 0,-3.1 c 0.4,0.2 1,0.2 1.6,0.2 0.6,0 1.2,-0.2 1.8,-0.6 0.6,-0.4 1,-1 1.2,-1.8 l 0.2,-0.6 -5.3,-15 z"
       id="path3403"
       inkscape:connector-curvature="0"
       style="fill:#3f403f" /><path
       d="m 336.9,468.7 c 0,-1.2 0.8,-1.8 2.3,-1.8 1.4,0 2.3,0.6 2.3,1.8 0,0.6 -0.2,1 -0.6,1.4 -0.4,0.4 -0.8,0.4 -1.6,0.4 -1.8,0 -2.4,-0.6 -2.4,-1.8 z m 4.1,18.3 -3.9,0 0,-14.6 3.9,0 0,14.6 z"
       id="path3405"
       inkscape:connector-curvature="0"
       style="fill:#3f403f" /><path
       d="m 357.2,487 -3.9,0 0,-8.4 c 0,-1 -0.2,-1.8 -0.6,-2.5 -0.4,-0.6 -1,-0.8 -1.8,-0.8 -1,0 -1.8,0.4 -2.5,1 -0.4,0.8 -0.8,2.1 -0.8,3.7 l 0,6.8 -3.9,0 0,-14.6 3.1,0 0.6,1.8 0.2,0 c 0.4,-0.6 1,-1.2 1.8,-1.6 0.8,-0.4 1.6,-0.6 2.7,-0.6 1.6,0 3.1,0.4 3.9,1.4 0.8,0.8 1.2,2.3 1.2,3.9 l 0,9.9 0,0 z"
       id="path3407"
       inkscape:connector-curvature="0"
       style="fill:#3f403f" /><path
       d="m 372.6,472.4 0,2.1 -2.3,0.6 c 0.4,0.6 0.6,1.4 0.6,2.3 0,1.6 -0.6,2.9 -1.6,3.7 -1,0.8 -2.7,1.2 -4.5,1.2 l -0.6,0 -0.6,0 c -0.4,0.4 -0.6,0.6 -0.6,1 0,0.6 0.8,0.8 2.3,0.8 l 2.5,0 c 1.6,0 2.9,0.4 3.7,1 0.8,0.6 1.2,1.6 1.2,3.1 0,1.6 -0.6,3.1 -2.1,3.9 -1.4,1 -3.5,1.4 -6.2,1.4 -2.1,0 -3.5,-0.4 -4.7,-1 -1,-0.6 -1.6,-1.6 -1.6,-2.9 0,-0.8 0.2,-1.6 0.8,-2.3 0.6,-0.6 1.4,-1 2.5,-1.2 -0.4,-0.2 -0.8,-0.4 -1,-0.8 -0.2,-0.4 -0.4,-0.8 -0.4,-1.2 0,-0.6 0.2,-1 0.4,-1.4 0.2,-0.4 0.8,-0.8 1.4,-1 -0.8,-0.4 -1.4,-0.8 -1.8,-1.6 -0.4,-0.8 -0.6,-1.6 -0.6,-2.7 0,-1.6 0.6,-2.9 1.6,-3.7 1,-0.8 2.5,-1.2 4.5,-1.2 0.4,0 0.8,0 1.4,0.2 0.6,0 0.8,0.2 1,0.2 l 4.7,0 0,-0.5 0,0 z M 361.3,489 c 0,0.6 0.2,1 0.8,1.2 0.6,0.2 1.2,0.4 2.3,0.4 1.4,0 2.5,-0.2 3.3,-0.6 0.8,-0.4 1.2,-1 1.2,-1.6 0,-0.6 -0.2,-0.8 -0.6,-1.2 -0.4,-0.2 -1.2,-0.4 -2.3,-0.4 l -2,0 c -0.8,0 -1.4,0.2 -1.8,0.4 -0.5,0.8 -0.9,1.2 -0.9,1.8 z m 1.7,-11.9 c 0,0.8 0.2,1.4 0.6,1.8 0.4,0.4 0.8,0.6 1.6,0.6 0.8,0 1.2,-0.2 1.6,-0.6 0.4,-0.4 0.6,-1 0.6,-1.8 0,-1.8 -0.8,-2.7 -2.3,-2.7 -1.5,0.2 -2.1,1 -2.1,2.7 z"
       id="path3409"
       inkscape:connector-curvature="0"
       style="fill:#3f403f" /><path
       d="m 385.6,484.1 c 0.6,0 1.4,-0.2 2.5,-0.4 l 0,2.9 c -1,0.4 -2.3,0.6 -3.7,0.6 -1.6,0 -2.7,-0.4 -3.5,-1.2 -0.8,-0.8 -1,-2.1 -1,-3.7 l 0,-7 -1.9,0 0,-1.6 2.3,-1.2 1.2,-3.1 2.5,0 0,3.1 4.1,0 0,3.1 -4.1,0 0,7 c 0,0.6 0.2,1 0.4,1.2 0.1,0.1 0.6,0.3 1.2,0.3 z"
       id="path3411"
       inkscape:connector-curvature="0"
       style="fill:#3f403f" /><path
       d="m 402.8,479.8 c 0,2.5 -0.6,4.3 -1.8,5.5 -1.2,1.4 -3.1,2.1 -5.1,2.1 -1.4,0 -2.7,-0.2 -3.7,-0.8 -1,-0.6 -1.8,-1.4 -2.5,-2.7 -0.7,-1.3 -0.8,-2.5 -0.8,-4.1 0,-2.5 0.6,-4.3 1.8,-5.5 1.2,-1.2 3.1,-2.1 5.3,-2.1 1.4,0 2.7,0.2 3.7,0.8 1,0.6 1.8,1.4 2.5,2.7 0.7,1.3 0.6,2.4 0.6,4.1 z m -10,0 c 0,1.4 0.2,2.5 0.6,3.3 0.4,0.8 1.2,1 2.3,1 1.1,0 1.8,-0.4 2.3,-1 0.4,-0.6 0.6,-1.8 0.6,-3.3 0,-1.4 -0.2,-2.5 -0.6,-3.3 -0.4,-0.8 -1.2,-1 -2.3,-1 -1.1,0 -1.8,0.4 -2.3,1 -0.4,0.6 -0.6,1.8 -0.6,3.3 z"
       id="path3413"
       inkscape:connector-curvature="0"
       style="fill:#3f403f" /><path
       d="m 419.7,487 -0.8,-2.1 0,0 c -0.6,0.8 -1.4,1.4 -2.1,1.8 -0.6,0.4 -1.6,0.4 -2.7,0.4 -1.4,0 -2.5,-0.4 -3.3,-1.2 -0.8,-0.8 -1.2,-1.8 -1.2,-3.5 0,-1.6 0.6,-2.7 1.6,-3.5 1,-0.8 2.7,-1.2 4.9,-1.2 l 2.5,0 0,-0.6 c 0,-1.4 -0.8,-2.3 -2.3,-2.3 -1.2,0 -2.5,0.4 -4.1,1 l -1.2,-2.7 c 1.6,-0.8 3.5,-1.2 5.5,-1.2 2.1,0 3.5,0.4 4.5,1.2 1,0.8 1.6,2.1 1.6,3.9 l 0,9.7 -3.1,0 0,0.3 0.2,0 0,0 z m -1.3,-6.8 -1.4,0 c -1.2,0 -2.1,0.2 -2.7,0.6 -0.6,0.4 -0.8,1 -0.8,1.6 0,1 0.6,1.6 1.8,1.6 0.8,0 1.6,-0.2 2.3,-0.8 0.6,-0.6 0.8,-1.2 0.8,-2.1 l 0,-0.9 0,0 z"
       id="path3415"
       inkscape:connector-curvature="0"
       style="fill:#3f403f" /><path
       d="m 431.2,487.2 c -4.5,0 -6.8,-2.5 -6.8,-7.4 0,-2.5 0.6,-4.3 1.8,-5.8 1.2,-1.4 3.1,-2.1 5.3,-2.1 1.6,0 3.3,0.4 4.5,1 l -1.2,3.1 c -0.6,-0.2 -1.2,-0.4 -1.8,-0.6 -0.6,-0.2 -1,-0.2 -1.6,-0.2 -2.1,0 -3.1,1.4 -3.1,4.3 0,2.9 1,4.3 3.1,4.3 0.8,0 1.4,0 2.1,-0.2 0.6,-0.2 1.2,-0.6 2.1,-1 l 0,3.5 c -0.6,0.4 -1.2,0.6 -1.8,0.8 -0.8,0.3 -1.6,0.3 -2.6,0.3 z"
       id="path3417"
       inkscape:connector-curvature="0"
       style="fill:#3f403f" /><path
       d="m 443.5,487.2 c -4.5,0 -6.8,-2.5 -6.8,-7.4 0,-2.5 0.6,-4.3 1.8,-5.8 1.2,-1.4 3.1,-2.1 5.3,-2.1 1.6,0 3.3,0.4 4.5,1 l -1.2,3.1 c -0.6,-0.2 -1.2,-0.4 -1.8,-0.6 -0.6,-0.2 -1,-0.2 -1.6,-0.2 -2.1,0 -3.1,1.4 -3.1,4.3 0,2.9 1,4.3 3.1,4.3 0.8,0 1.4,0 2.1,-0.2 0.6,-0.2 1.2,-0.6 2.1,-1 l 0,3.5 c -0.6,0.4 -1.2,0.6 -1.8,0.8 -0.7,0.3 -1.6,0.3 -2.6,0.3 z"
       id="path3419"
       inkscape:connector-curvature="0"
       style="fill:#3f403f" /><path
       d="m 456.7,487.2 c -2.3,0 -4.1,-0.6 -5.5,-1.8 -1.4,-1.2 -2.1,-3.1 -2.1,-5.5 0,-2.5 0.6,-4.3 1.8,-5.8 1.2,-1.2 2.9,-2.1 5.1,-2.1 2.1,0 3.7,0.6 4.7,1.8 1.2,1.2 1.6,2.9 1.6,4.9 l 0,1.8 -9.3,0 c 0,1.2 0.4,2.1 1,2.7 0.6,0.6 1.4,1 2.7,1 0.8,0 1.6,0 2.5,-0.2 0.8,-0.2 1.6,-0.4 2.5,-0.8 l 0,3.1 c -0.6,0.4 -1.4,0.6 -2.3,0.8 -0.9,0.3 -1.7,0.1 -2.7,0.1 z M 456,475 c -0.8,0 -1.4,0.2 -2.1,0.8 -0.4,0.6 -0.8,1.2 -0.8,2.3 l 5.5,0 c 0,-1 -0.2,-1.6 -0.8,-2.3 -0.3,-0.6 -0.9,-0.8 -1.8,-0.8 z"
       id="path3421"
       inkscape:connector-curvature="0"
       style="fill:#3f403f" /><path
       d="m 474.5,482.6 c 0,1.4 -0.6,2.7 -1.6,3.5 -1,0.8 -2.7,1.2 -4.7,1.2 -1,0 -2.1,0 -2.7,-0.2 -0.8,-0.2 -1.4,-0.4 -2.1,-0.6 l 0,-3.5 c 0.8,0.4 1.6,0.6 2.5,0.8 1,0.2 1.6,0.4 2.5,0.4 1.4,0 2.3,-0.4 2.3,-1.2 0,-0.4 0,-0.6 -0.2,-0.8 -0.2,-0.2 -0.6,-0.4 -1,-0.6 -0.4,-0.2 -1,-0.6 -1.8,-0.8 -1,-0.4 -1.8,-0.8 -2.5,-1.2 -0.7,-0.4 -0.8,-0.8 -1.2,-1.4 -0.4,-0.6 -0.4,-1.2 -0.4,-1.8 0,-1.2 0.4,-2.3 1.4,-3.1 1,-0.6 2.5,-1 4.3,-1 1.8,0 3.5,0.4 5.1,1.2 l -1.2,2.9 c -0.8,-0.4 -1.4,-0.6 -2.1,-0.8 -0.7,-0.2 -1.2,-0.2 -1.8,-0.2 -1.2,0 -1.8,0.4 -1.8,1 0,0.4 0.2,0.6 0.6,1 0.4,0.2 1.2,0.6 2.5,1.2 1.2,0.4 2.1,0.8 2.5,1.2 0.6,0.4 0.8,0.8 1.2,1.4 0.2,0.2 0.2,0.8 0.2,1.4 z"
       id="path3423"
       inkscape:connector-curvature="0"
       style="fill:#3f403f" /><path
       d="m 486.6,482.6 c 0,1.4 -0.6,2.7 -1.6,3.5 -1,0.8 -2.7,1.2 -4.7,1.2 -1,0 -2.1,0 -2.7,-0.2 -0.8,-0.2 -1.4,-0.4 -2.1,-0.6 l 0,-3.5 c 0.8,0.4 1.6,0.6 2.5,0.8 1,0.2 1.6,0.4 2.5,0.4 1.4,0 2.3,-0.4 2.3,-1.2 0,-0.4 0,-0.6 -0.2,-0.8 -0.2,-0.2 -0.6,-0.4 -1,-0.6 -0.4,-0.2 -1,-0.6 -1.8,-0.8 -1,-0.4 -1.8,-0.8 -2.5,-1.2 -0.7,-0.4 -0.8,-0.8 -1.2,-1.4 -0.4,-0.6 -0.4,-1.2 -0.4,-1.8 0,-1.2 0.4,-2.3 1.4,-3.1 1,-0.6 2.5,-1 4.3,-1 1.8,0 3.5,0.4 5.1,1.2 l -1.2,2.9 c -0.8,-0.4 -1.4,-0.6 -2.1,-0.8 -0.6,-0.2 -1.2,-0.2 -1.8,-0.2 -1.2,0 -1.8,0.4 -1.8,1 0,0.4 0.2,0.6 0.6,1 0.4,0.2 1.2,0.6 2.5,1.2 1.2,0.4 2.1,0.8 2.5,1.2 0.6,0.4 0.8,0.8 1.2,1.4 0,0.2 0.2,0.8 0.2,1.4 z"
       id="path3425"
       inkscape:connector-curvature="0"
       style="fill:#3f403f" /><path
       d="m 196.4,519.2 c -4.5,0 -6.8,-2.5 -6.8,-7.4 0,-2.5 0.6,-4.3 1.8,-5.8 1.2,-1.2 3.1,-2.1 5.3,-2.1 1.6,0 3.3,0.4 4.5,1 L 200,508 c -0.6,-0.2 -1.2,-0.4 -1.8,-0.6 -0.6,-0.2 -1,-0.2 -1.6,-0.2 -2.1,0 -3.1,1.4 -3.1,4.3 0,2.9 1,4.3 3.1,4.3 0.8,0 1.4,0 2.1,-0.2 0.6,-0.2 1.2,-0.6 2.1,-1 l 0,3.5 c -0.6,0.4 -1.2,0.6 -1.8,0.8 -0.8,0.3 -1.6,0.3 -2.6,0.3 z"
       id="path3427"
       inkscape:connector-curvature="0"
       style="fill:#3f403f" /><path
       d="m 212,519 -0.8,-2.1 -0.2,0 c -0.6,0.8 -1.4,1.4 -2.1,1.8 -0.6,0.4 -1.6,0.4 -2.7,0.4 -1.4,0 -2.5,-0.4 -3.3,-1.2 -0.8,-0.8 -1.2,-1.8 -1.2,-3.5 0,-1.7 0.6,-2.7 1.6,-3.5 1,-0.8 2.7,-1.2 4.9,-1.2 l 2.5,0 0,-0.6 c 0,-1.4 -0.8,-2.3 -2.3,-2.3 -1.2,0 -2.5,0.4 -4.1,1 l -1.2,-2.7 c 1.6,-0.8 3.5,-1.2 5.5,-1.2 2.1,0 3.5,0.4 4.5,1.2 1,0.8 1.6,2.1 1.6,3.9 l 0,9.7 -2.7,0 0,0.3 z m -1,-6.8 -1.4,0 c -1.2,0 -2.1,0.2 -2.7,0.6 -0.6,0.4 -0.8,1 -0.8,1.6 0,1 0.6,1.6 1.8,1.6 0.8,0 1.6,-0.2 2.3,-0.8 0.6,-0.6 0.8,-1.2 0.8,-2.1 l 0,-0.9 0,0 z"
       id="path3429"
       inkscape:connector-curvature="0"
       style="fill:#3f403f" /><path
       d="m 231.1,519 -3.9,0 0,-8.4 c 0,-1 -0.2,-1.8 -0.6,-2.5 -0.4,-0.7 -1,-0.8 -1.8,-0.8 -1,0 -1.8,0.4 -2.5,1 -0.4,0.8 -0.8,2.1 -0.8,3.7 l 0,6.8 -3.9,0 0,-14.6 3.1,0 0.6,1.8 0.2,0 c 0.4,-0.6 1,-1.2 1.8,-1.6 0.8,-0.4 1.6,-0.6 2.7,-0.6 1.6,0 3.1,0.4 3.9,1.4 0.8,0.8 1.2,2.3 1.2,3.9 l 0,9.9 0,0 z"
       id="path3431"
       inkscape:connector-curvature="0"
       style="fill:#3f403f" /><path
       d="m 247.3,519 -3.9,0 0,-8.4 c 0,-1 -0.2,-1.8 -0.6,-2.5 -0.4,-0.6 -1,-0.8 -1.8,-0.8 -1,0 -1.8,0.4 -2.5,1 -0.4,0.8 -0.8,2.1 -0.8,3.7 l 0,6.8 -3.9,0 0,-14.6 3.1,0 0.6,1.8 0.2,0 c 0.4,-0.6 1,-1.2 1.8,-1.6 0.8,-0.4 1.6,-0.6 2.7,-0.6 1.6,0 3.1,0.4 3.9,1.4 0.8,0.8 1.2,2.3 1.2,3.9 l 0,9.9 z"
       id="path3433"
       inkscape:connector-curvature="0"
       style="fill:#3f403f" /><path
       d="m 263.3,511.8 c 0,2.5 -0.6,4.3 -1.8,5.5 -1.2,1.4 -3.1,2.1 -5.1,2.1 -1.4,0 -2.7,-0.2 -3.7,-0.8 -1,-0.6 -1.8,-1.4 -2.5,-2.7 -0.6,-1.2 -0.8,-2.5 -0.8,-4.1 0,-2.5 0.6,-4.3 1.8,-5.5 1.2,-1.2 3.1,-2.1 5.3,-2.1 1.4,0 2.7,0.2 3.7,0.8 1,0.6 1.8,1.4 2.5,2.7 0.7,1.3 0.6,2.5 0.6,4.1 z m -10,0 c 0,1.4 0.2,2.5 0.6,3.3 0.4,0.8 1.2,1 2.3,1 1,0 1.8,-0.4 2.3,-1 0.5,-0.6 0.6,-1.8 0.6,-3.3 0,-1.5 -0.2,-2.5 -0.6,-3.3 -0.4,-0.8 -1.2,-1 -2.3,-1 -1,0 -1.8,0.4 -2.3,1 -0.4,0.6 -0.6,1.9 -0.6,3.3 z"
       id="path3435"
       inkscape:connector-curvature="0"
       style="fill:#3f403f" /><path
       d="m 271.4,516.1 c 0.6,0 1.4,-0.2 2.5,-0.4 l 0,2.9 c -1,0.4 -2.3,0.6 -3.7,0.6 -1.6,0 -2.7,-0.4 -3.5,-1.2 -0.8,-0.8 -1,-2.1 -1,-3.7 l 0,-7 -1.8,0 0,-1.6 2.3,-1.2 1.2,-3.1 2.5,0 0,3.1 4.1,0 0,3.1 -4.1,0 0,7 c 0,0.6 0.2,1 0.4,1.2 0.2,0.1 0.7,0.3 1.1,0.3 z"
       id="path3437"
       inkscape:connector-curvature="0"
       style="fill:#3f403f" /><path
       d="m 289.2,504.2 c 1.6,0 3.1,0.6 4.1,2.1 1,1.4 1.4,3.1 1.4,5.5 0,2.4 -0.4,4.3 -1.4,5.5 -1,1.2 -2.5,2.1 -4.1,2.1 -1.6,0 -3.1,-0.6 -4.1,-1.8 l -0.2,0 -0.6,1.6 -3.1,0 0,-20.3 3.9,0 0,4.7 c 0,0.6 0,1.6 -0.2,2.9 l 0.2,0 c 0.8,-1.7 2.3,-2.3 4.1,-2.3 z m -1.2,3.1 c -1,0 -1.6,0.2 -2.1,0.8 -0.4,0.6 -0.6,1.6 -0.6,3.1 l 0,0.4 c 0,1.6 0.2,2.7 0.6,3.3 0.4,0.6 1.2,1 2.3,1 0.8,0 1.4,-0.4 1.8,-1 0.4,-0.8 0.8,-1.8 0.8,-3.3 0,-1.4 -0.2,-2.5 -0.8,-3.3 -0.6,-0.6 -1.2,-1 -2,-1 z"
       id="path3439"
       inkscape:connector-curvature="0"
       style="fill:#3f403f" /><path
       d="m 303.2,519.2 c -2.3,0 -4.1,-0.6 -5.5,-1.8 -1.4,-1.2 -2.1,-3.1 -2.1,-5.5 0,-2.5 0.6,-4.3 1.8,-5.8 1.2,-1.2 2.9,-2.1 5.1,-2.1 2.1,0 3.7,0.6 4.7,1.8 1.2,1.2 1.6,2.9 1.6,4.9 l 0,1.8 -9.2,0 c 0,1.2 0.4,2.1 1,2.7 0.6,0.6 1.4,1 2.7,1 0.8,0 1.6,0 2.5,-0.2 0.8,-0.2 1.6,-0.4 2.5,-0.8 l 0,3.1 c -0.6,0.4 -1.4,0.6 -2.3,0.8 -0.7,0.3 -1.6,0.1 -2.8,0.1 z m -0.4,-12.1 c -0.8,0 -1.4,0.2 -2.1,0.8 -0.4,0.6 -0.8,1.2 -0.8,2.3 l 5.5,0 c 0,-1 -0.2,-1.6 -0.8,-2.3 -0.4,-0.6 -1,-0.8 -1.8,-0.8 z"
       id="path3441"
       inkscape:connector-curvature="0"
       style="fill:#3f403f" /><path
       d="m 324.8,507.5 -3.5,0 0,11.5 -3.9,0 0,-11.5 -2.3,0 0,-1.8 2.3,-1 0,-1 c 0,-1.6 0.4,-2.9 1.2,-3.7 0.8,-0.8 2.1,-1.2 3.9,-1.2 1.4,0 2.7,0.2 3.7,0.6 l -1,2.9 c -0.8,-0.2 -1.6,-0.4 -2.3,-0.4 -0.7,0 -1,0.2 -1.2,0.4 -0.2,0.4 -0.4,0.8 -0.4,1.2 l 0,0.8 3.5,0 0,3.2 0,0 z"
       id="path3443"
       inkscape:connector-curvature="0"
       style="fill:#3f403f" /><path
       d="m 338.9,511.8 c 0,2.5 -0.6,4.3 -1.8,5.5 -1.2,1.4 -3.1,2.1 -5.1,2.1 -1.4,0 -2.7,-0.2 -3.7,-0.8 -1,-0.6 -1.8,-1.4 -2.5,-2.7 -0.6,-1.2 -0.8,-2.5 -0.8,-4.1 0,-2.5 0.6,-4.3 1.8,-5.5 1.2,-1.2 3.1,-2.1 5.3,-2.1 1.4,0 2.7,0.2 3.7,0.8 1,0.6 1.8,1.4 2.5,2.7 0.6,1.2 0.6,2.5 0.6,4.1 z m -10,0 c 0,1.4 0.2,2.5 0.6,3.3 0.4,0.8 1.2,1 2.3,1 1,0 1.8,-0.4 2.3,-1 0.4,-0.6 0.6,-1.8 0.6,-3.3 0,-1.5 -0.2,-2.5 -0.6,-3.3 -0.4,-0.8 -1.2,-1 -2.3,-1 -1,0 -1.8,0.4 -2.3,1 -0.4,0.6 -0.6,1.9 -0.6,3.3 z"
       id="path3445"
       inkscape:connector-curvature="0"
       style="fill:#3f403f" /><path
       d="m 351.3,519 -0.6,-1.8 -0.2,0 c -0.4,0.6 -1,1.2 -1.8,1.6 -0.8,0.4 -1.6,0.6 -2.7,0.6 -1.6,0 -3.1,-0.4 -3.9,-1.4 -0.8,-0.8 -1.2,-2.3 -1.2,-3.9 l 0,-9.4 3.9,0 0,8.4 c 0,1 0.2,1.8 0.6,2.5 0.4,0.7 1,0.8 1.8,0.8 1,0 1.8,-0.4 2.5,-1 0.4,-0.8 0.8,-2.1 0.8,-3.7 l 0,-6.8 3.9,0 0,14.6 -3.1,0 0,-0.5 0,0 z"
       id="path3447"
       inkscape:connector-curvature="0"
       style="fill:#3f403f" /><path
       d="m 370.6,519 -3.9,0 0,-8.4 c 0,-1 -0.2,-1.8 -0.6,-2.5 -0.4,-0.6 -1,-0.8 -1.8,-0.8 -1,0 -1.8,0.4 -2.5,1 -0.4,0.8 -0.8,2.1 -0.8,3.7 l 0,6.8 -3.7,0 0,-14.6 3.1,0 0.6,1.8 0.2,0 c 0.4,-0.6 1,-1.2 1.8,-1.6 0.8,-0.4 1.6,-0.6 2.7,-0.6 1.6,0 3.1,0.4 3.9,1.4 0.8,0.8 1.2,2.3 1.2,3.9 l 0,9.9 -0.2,0 0,0 z"
       id="path3449"
       inkscape:connector-curvature="0"
       style="fill:#3f403f" /><path
       d="m 378,519.2 c -1.6,0 -3.1,-0.6 -4.1,-2.1 -1,-1.2 -1.4,-3.1 -1.4,-5.5 0,-2.5 0.4,-4.3 1.4,-5.5 1,-1.2 2.5,-2.1 4.1,-2.1 1.8,0 3.3,0.6 4.1,2.1 l 0.2,0 c -0.2,-1 -0.2,-2.1 -0.2,-2.9 l 0,-4.7 3.9,0 0,20.3 -3.1,0 -0.8,-1.8 -0.2,0 c -0.6,1.6 -2.1,2.2 -3.9,2.2 z m 1.4,-3.1 c 1,0 1.8,-0.2 2.3,-0.8 0.5,-0.6 0.8,-1.6 0.8,-3.1 l 0,-0.4 c 0,-1.6 -0.2,-2.7 -0.8,-3.3 -0.4,-0.6 -1.2,-1 -2.3,-1 -0.8,0 -1.6,0.4 -2.1,1.2 -0.5,0.8 -0.8,1.8 -0.8,3.3 0,1.4 0.2,2.5 0.8,3.3 0.5,0.4 1.1,0.8 2.1,0.8 z"
       id="path3451"
       inkscape:connector-curvature="0"
       style="fill:#3f403f" /></g></svg>